<svg width="42" height="27" viewBox="0 0 42 27" fill="none" xmlns="http://www.w3.org/2000/svg">
<path d="M19.7354 10.2292H22.6521V8.77083H20.3125L18.3583 0.5625C18.3207 0.402349 18.2301 0.259619 18.1011 0.157501C17.9721 0.0553817 17.8124 -0.000124568 17.6479 2.09916e-07H14.5146C14.3501 -0.000124568 14.1904 0.0553817 14.0614 0.157501C13.9324 0.259619 13.8418 0.402349 13.8042 0.5625L11.8479 8.77083H9.50209V10.2292H19.7354ZM15.0917 1.45625H17.0688L18.8104 8.76667H13.35L15.0917 1.45625ZM18.2729 18.2708H13.8875C13.7916 18.2706 13.6965 18.2892 13.6078 18.3257C13.5191 18.3623 13.4385 18.4159 13.3706 18.4837C13.3026 18.5514 13.2487 18.6319 13.212 18.7205C13.1752 18.8091 13.1563 18.9041 13.1563 19V22.6562C13.156 22.7524 13.1747 22.8476 13.2114 22.9364C13.248 23.0253 13.3019 23.106 13.3698 23.1739C13.4378 23.2419 13.5185 23.2957 13.6073 23.3324C13.6962 23.369 13.7914 23.3878 13.8875 23.3875H18.2729C18.369 23.3878 18.4642 23.369 18.5531 23.3324C18.6419 23.2957 18.7226 23.2419 18.7906 23.1739C18.8586 23.106 18.9124 23.0253 18.9491 22.9364C18.9857 22.8476 19.0044 22.7524 19.0042 22.6562V19C19.0042 18.9041 18.9852 18.8091 18.9485 18.7205C18.9117 18.6319 18.8578 18.5514 18.7899 18.4837C18.7219 18.4159 18.6413 18.3623 18.5526 18.3257C18.4639 18.2892 18.3689 18.2706 18.2729 18.2708ZM17.5438 21.925H14.6188V19.7312H17.5354L17.5438 21.925ZM8.77083 18.2708H10.2333V21.925H8.77083V18.2708ZM32.1625 13.1521H33.625V16.8062H32.1625V13.1521ZM32.1625 6.575H33.625V10.2292H32.1625V6.575ZM40.9354 1.45625H30.7021C30.6062 1.45625 30.5112 1.47518 30.4226 1.51195C30.334 1.54873 30.2535 1.60262 30.1857 1.67055C30.118 1.73848 30.0643 1.81911 30.0278 1.90782C29.9913 1.99653 29.9726 2.09157 29.9729 2.1875V16.0771H0.729169C0.633238 16.0771 0.53825 16.096 0.449647 16.1328C0.361045 16.1696 0.280569 16.2235 0.212833 16.2914C0.145096 16.3593 0.0914296 16.4399 0.0549083 16.5287C0.018387 16.6174 -0.000271112 16.7124 2.97648e-06 16.8083V25.5792C-0.000271112 25.6751 0.018387 25.7701 0.0549083 25.8588C0.0914296 25.9476 0.145096 26.0282 0.212833 26.0961C0.280569 26.164 0.361045 26.2179 0.449647 26.2547C0.53825 26.2915 0.633238 26.3104 0.729169 26.3104H40.9375C41.0336 26.3107 41.1288 26.292 41.2177 26.2553C41.3065 26.2187 41.3872 26.1648 41.4552 26.0968C41.5231 26.0289 41.577 25.9482 41.6136 25.8593C41.6503 25.7705 41.669 25.6753 41.6688 25.5792V2.1875C41.669 2.09122 41.6502 1.99583 41.6134 1.90685C41.5767 1.81787 41.5226 1.73706 41.4545 1.66907C41.3863 1.60109 41.3053 1.54728 41.2162 1.51075C41.1271 1.47422 41.0317 1.4557 40.9354 1.45625ZM29.9708 20.4625H21.1979V17.5458H29.9708V20.4625ZM1.46042 17.5458H10.9646V24.8563H1.46042V17.5458ZM12.425 17.5458H19.7354V20.4625H19.7104V21.9208H19.7354V24.8375H12.425V17.5458ZM21.1979 21.9208H29.9708V24.8375H21.1979V21.9208ZM40.2042 24.8375H31.4312V12.4229H40.2042V24.8375ZM31.4312 10.9604V2.91875H40.2042V10.9604H31.4312Z" fill="black"/>
</svg>
