<svg width="20" height="20" viewBox="0 0 20 20" fill="none" xmlns="http://www.w3.org/2000/svg">
<path d="M17.501 5.60818C17.4844 5.60818 17.4594 5.60818 17.4344 5.60818C13.026 5.16651 8.62603 4.99985 4.26769 5.44151L2.56769 5.60818C2.21769 5.64151 1.90936 5.39151 1.87603 5.04151C1.84269 4.69151 2.0927 4.39151 2.43436 4.35818L4.13436 4.19151C8.5677 3.74151 13.0594 3.91651 17.5594 4.35818C17.901 4.39151 18.151 4.69985 18.1177 5.04151C18.0927 5.36651 17.8177 5.60818 17.501 5.60818Z" fill="#E53A39"/>
<path d="M7.08265 4.76641C7.04932 4.76641 7.01598 4.76641 6.97432 4.75808C6.64098 4.69975 6.40765 4.37475 6.46598 4.04141L6.64932 2.94975C6.78265 2.14975 6.96598 1.04141 8.90765 1.04141H11.091C13.041 1.04141 13.2243 2.19141 13.3493 2.95808L13.5326 4.04141C13.591 4.38308 13.3576 4.70808 13.0243 4.75808C12.6826 4.81641 12.3576 4.58308 12.3076 4.24975L12.1243 3.16641C12.0076 2.44141 11.9826 2.29975 11.0993 2.29975H8.91598C8.03265 2.29975 8.01598 2.41641 7.89098 3.15808L7.69932 4.24141C7.64932 4.54975 7.38265 4.76641 7.08265 4.76641Z" fill="#E53A39"/>
<path d="M12.674 18.9585H7.32402C4.41569 18.9585 4.29902 17.3502 4.20735 16.0502L3.66569 7.65855C3.64069 7.31688 3.90735 7.01688 4.24902 6.99188C4.59902 6.97522 4.89069 7.23355 4.91569 7.57522L5.45735 15.9669C5.54902 17.2335 5.58235 17.7085 7.32402 17.7085H12.674C14.424 17.7085 14.4574 17.2335 14.5407 15.9669L15.0824 7.57522C15.1074 7.23355 15.4074 6.97522 15.749 6.99188C16.0907 7.01688 16.3574 7.30855 16.3324 7.65855L15.7907 16.0502C15.699 17.3502 15.5824 18.9585 12.674 18.9585Z" fill="#E53A39"/>
<path d="M11.3834 14.375H8.6084C8.26673 14.375 7.9834 14.0917 7.9834 13.75C7.9834 13.4083 8.26673 13.125 8.6084 13.125H11.3834C11.7251 13.125 12.0084 13.4083 12.0084 13.75C12.0084 14.0917 11.7251 14.375 11.3834 14.375Z" fill="#E53A39"/>
<path d="M12.0846 11.0414H7.91797C7.5763 11.0414 7.29297 10.7581 7.29297 10.4164C7.29297 10.0747 7.5763 9.79141 7.91797 9.79141H12.0846C12.4263 9.79141 12.7096 10.0747 12.7096 10.4164C12.7096 10.7581 12.4263 11.0414 12.0846 11.0414Z" fill="#E53A39"/>
</svg>
