<svg width="26" height="29" viewBox="0 0 26 29" fill="none" xmlns="http://www.w3.org/2000/svg">
<path d="M25.5 23.3267C25.3348 24.6628 25.2626 25.2419 24.6455 26.5444L15.1709 28.5005C15.3887 27.0928 15.6795 26.0072 16.1514 25.356L25.5 23.3267ZM12.3037 14.1128L15.1348 13.4985V4.55225C16.1897 3.36808 16.838 2.83571 18.1113 2.16357V12.8521L25.5 11.2476C25.3348 12.5836 25.2624 13.1631 24.6455 14.4653L18.1113 15.8462V18.8511L25.5 17.2876C25.3348 18.6238 25.2625 19.2029 24.6455 20.5054L18.1113 21.854V21.8823L15.1348 22.4976V16.4761L12.3037 17.0747V20.8696L12.2559 20.8794C11.6047 22.0212 10.6848 23.3927 9.79883 24.4878L0.5 26.2583C0.583372 25.0619 0.757871 24.3882 1.29883 23.1831L9.32715 21.4419V17.7036L1.88574 19.2778C1.96911 18.0814 2.14362 17.4077 2.68457 16.2026L9.32715 14.7593V2.88721C10.3819 1.70322 11.0305 1.1716 12.3037 0.499512V14.1128Z" fill="#E00A0A"/>
</svg>
