<svg width="30" height="31" viewBox="0 0 30 31" fill="none" xmlns="http://www.w3.org/2000/svg">
<path d="M14.375 27.6875C7.3125 27.6875 1.5625 21.9375 1.5625 14.875C1.5625 7.8125 7.3125 2.0625 14.375 2.0625C21.4375 2.0625 27.1875 7.8125 27.1875 14.875C27.1875 21.9375 21.4375 27.6875 14.375 27.6875ZM14.375 3.9375C8.3375 3.9375 3.4375 8.85 3.4375 14.875C3.4375 20.9 8.3375 25.8125 14.375 25.8125C20.4125 25.8125 25.3125 20.9 25.3125 14.875C25.3125 8.85 20.4125 3.9375 14.375 3.9375Z" fill="#000"/>
<path d="M27.5 28.9375C27.2625 28.9375 27.025 28.85 26.8375 28.6625L24.3375 26.1625C23.975 25.8 23.975 25.2 24.3375 24.8375C24.7 24.475 25.3001 24.475 25.6626 24.8375L28.1626 27.3375C28.5251 27.7 28.5251 28.3 28.1626 28.6625C27.9751 28.85 27.7375 28.9375 27.5 28.9375Z" fill="#000"/>
</svg>
