<svg width="16" height="13" viewBox="0 0 16 13" fill="none" xmlns="http://www.w3.org/2000/svg">
<path d="M8.00009 12.6667C7.65971 12.665 7.32397 12.5875 7.01724 12.4399C6.71051 12.2923 6.44049 12.0783 6.22676 11.8134L0.613426 5.01335C0.285418 4.60398 0.0790069 4.11069 0.0177151 3.58971C-0.0435768 3.06873 0.0427154 2.54101 0.266759 2.06669C0.448465 1.65446 0.74499 1.30324 1.12092 1.05498C1.49685 0.806729 1.93629 0.671931 2.38676 0.666687H13.6134C14.0639 0.671931 14.5033 0.806729 14.8793 1.05498C15.2552 1.30324 15.5517 1.65446 15.7334 2.06669C15.9575 2.54101 16.0438 3.06873 15.9825 3.58971C15.9212 4.11069 15.7148 4.60398 15.3868 5.01335L9.77343 11.8134C9.5597 12.0783 9.28967 12.2923 8.98294 12.4399C8.67622 12.5875 8.34048 12.665 8.00009 12.6667Z" fill="#2B2B2B"/>
</svg>
