<svg width="31" height="31" viewBox="0 0 31 31" fill="none" xmlns="http://www.w3.org/2000/svg">
<path d="M24.5 24.5C22.835 24.5 21.5 25.835 21.5 27.5C21.5 28.2956 21.8161 29.0587 22.3787 29.6213C22.9413 30.1839 23.7044 30.5 24.5 30.5C25.2956 30.5 26.0587 30.1839 26.6213 29.6213C27.1839 29.0587 27.5 28.2956 27.5 27.5C27.5 26.7044 27.1839 25.9413 26.6213 25.3787C26.0587 24.8161 25.2956 24.5 24.5 24.5ZM0.5 0.5V3.5H3.5L8.9 14.885L6.86 18.56C6.635 18.98 6.5 19.475 6.5 20C6.5 20.7956 6.81607 21.5587 7.37868 22.1213C7.94129 22.6839 8.70435 23 9.5 23H27.5V20H10.13C10.0305 20 9.93516 19.9605 9.86483 19.8902C9.79451 19.8198 9.755 19.7245 9.755 19.625C9.755 19.55 9.77 19.49 9.8 19.445L11.15 17H22.325C23.45 17 24.44 16.37 24.95 15.455L30.32 5.75C30.425 5.51 30.5 5.255 30.5 5C30.5 4.60218 30.342 4.22064 30.0607 3.93934C29.7794 3.65804 29.3978 3.5 29 3.5H6.815L5.405 0.5M9.5 24.5C7.835 24.5 6.5 25.835 6.5 27.5C6.5 28.2956 6.81607 29.0587 7.37868 29.6213C7.94129 30.1839 8.70435 30.5 9.5 30.5C10.2956 30.5 11.0587 30.1839 11.6213 29.6213C12.1839 29.0587 12.5 28.2956 12.5 27.5C12.5 26.7044 12.1839 25.9413 11.6213 25.3787C11.0587 24.8161 10.2956 24.5 9.5 24.5Z" fill="#C195A0"/>
</svg>
