<svg width="26" height="26" viewBox="0 0 26 26" fill="none" xmlns="http://www.w3.org/2000/svg">
<path d="M21.3334 10.8332C21.3334 12.2121 21.0618 13.5775 20.5341 14.8514C20.0064 16.1253 19.233 17.2828 18.258 18.2579C17.283 19.2329 16.1255 20.0063 14.8516 20.534C13.5776 21.0616 12.2123 21.3332 10.8334 21.3332C9.45449 21.3332 8.08912 21.0616 6.8152 20.534C5.54128 20.0063 4.38377 19.2329 3.40875 18.2579C2.43374 17.2828 1.66031 16.1253 1.13264 14.8514C0.604964 13.5775 0.333374 12.2121 0.333374 10.8332C0.333374 8.04847 1.43962 5.37776 3.40875 3.40863C5.37788 1.4395 8.0486 0.333252 10.8334 0.333252C13.6181 0.333252 16.2889 1.4395 18.258 3.40863C20.2271 5.37776 21.3334 8.04847 21.3334 10.8332Z" fill="#C195A0"/>
<path d="M24.3334 24.3332L21.3334 21.3333" stroke="#C195A0" stroke-width="2.66667" stroke-linecap="round"/>
</svg>
