<svg width="34" height="34" viewBox="0 0 34 34" fill="none" xmlns="http://www.w3.org/2000/svg">
<path d="M29.7102 12.678H4.16722C3.6503 12.6786 3.14019 12.796 2.67503 13.0214C2.20986 13.2469 1.80167 13.5746 1.48097 13.98C1.1616 14.3843 0.938434 14.8559 0.828372 15.3593C0.718311 15.8626 0.724243 16.3843 0.845721 16.885L3.58447 28.099C3.981 29.5438 4.84195 30.818 6.03447 31.725C7.22797 32.6333 8.68922 33.125 10.1925 33.125H23.6815C25.1847 33.125 26.646 32.6333 27.8395 31.725C29.032 30.818 29.8929 29.5438 30.2895 28.099L33.0282 16.8868C33.2126 16.1308 33.1317 15.3346 32.7991 14.6312C32.4665 13.9278 31.9024 13.3599 31.2012 13.0228C30.7347 12.7988 30.2242 12.681 29.7067 12.678M10.091 19.4925V26.3088M16.9387 19.4925V26.3088M23.7865 19.4925V26.3088M28.9227 12.678C28.9221 11.1101 28.6117 9.55774 28.0092 8.11018C27.4068 6.66262 26.5242 5.34839 25.4122 4.243C23.1608 2.00388 20.114 0.747906 16.9387 0.750003C13.7634 0.747906 10.7166 2.00388 8.46522 4.243C7.35356 5.34853 6.47131 6.66283 5.86916 8.11038C5.26701 9.55793 4.95684 11.1102 4.95647 12.678" stroke="black" stroke-width="1.5" stroke-linecap="round" stroke-linejoin="round"/>
</svg>
