<svg width="37" height="37" viewBox="0 0 37 37" fill="none" xmlns="http://www.w3.org/2000/svg">
<path d="M18.25 0.75C8.58475 0.75 0.75 8.58475 0.75 18.25C0.75 27.9152 8.58475 35.75 18.25 35.75C27.9152 35.75 35.75 27.9152 35.75 18.25C35.75 8.58475 27.9152 0.75 18.25 0.75Z" stroke="black" stroke-width="1.5" stroke-linecap="round" stroke-linejoin="round"/>
<path d="M4.72424 29.3555C4.72424 29.3555 8.62499 24.375 18.25 24.375C27.875 24.375 31.7775 29.3555 31.7775 29.3555M18.25 18.25C19.6424 18.25 20.9777 17.6969 21.9623 16.7123C22.9469 15.7277 23.5 14.3924 23.5 13C23.5 11.6076 22.9469 10.2723 21.9623 9.28769C20.9777 8.30312 19.6424 7.75 18.25 7.75C16.8576 7.75 15.5222 8.30312 14.5377 9.28769C13.5531 10.2723 13 11.6076 13 13C13 14.3924 13.5531 15.7277 14.5377 16.7123C15.5222 17.6969 16.8576 18.25 18.25 18.25Z" stroke="black" stroke-width="1.5" stroke-linecap="round" stroke-linejoin="round"/>
</svg>
