<svg width="24" height="27" viewBox="0 0 24 27" fill="none" xmlns="http://www.w3.org/2000/svg">
<path d="M22.6136 9.28996C21.7203 8.30329 20.3736 7.72996 18.507 7.52996V6.51663C18.507 4.68996 17.7336 2.92996 16.3736 1.70329C15.0003 0.449958 13.2136 -0.136708 11.3603 0.0366249C8.17365 0.343292 5.49365 3.42329 5.49365 6.75663V7.52996C3.62698 7.72996 2.28031 8.30329 1.38698 9.28996C0.0936453 10.73 0.133645 12.65 0.280312 13.9833L1.21365 21.41C1.49365 24.01 2.54698 26.6766 8.28031 26.6766H15.7203C21.4536 26.6766 22.507 24.01 22.787 21.4233L23.7203 13.97C23.867 12.65 23.8936 10.73 22.6136 9.28996ZM11.547 1.88996C12.8803 1.76996 14.147 2.18329 15.1336 3.07663C16.107 3.95663 16.6536 5.20996 16.6536 6.51663V7.44996H7.34698V6.75663C7.34698 4.38329 9.30698 2.10329 11.547 1.88996ZM7.22698 14.8766H7.21365C6.48031 14.8766 5.88031 14.2766 5.88031 13.5433C5.88031 12.81 6.48031 12.21 7.21365 12.21C7.96031 12.21 8.56031 12.81 8.56031 13.5433C8.56031 14.2766 7.96031 14.8766 7.22698 14.8766ZM16.5603 14.8766H16.547C15.8136 14.8766 15.2136 14.2766 15.2136 13.5433C15.2136 12.81 15.8136 12.21 16.547 12.21C17.2936 12.21 17.8936 12.81 17.8936 13.5433C17.8936 14.2766 17.2936 14.8766 16.5603 14.8766Z" fill="#6D28D9"/>
</svg>
