<svg width="32" height="32" viewBox="0 0 32 32" fill="none" xmlns="http://www.w3.org/2000/svg">
<path d="M22 11.5067C21.4533 11.5067 21 11.0533 21 10.5067V8.66666C21 7.26666 20.4 5.90666 19.36 4.95999C18.3067 3.99999 16.9467 3.55999 15.5067 3.69333C13.1067 3.91999 11 6.37333 11 8.93333V10.2267C11 10.7733 10.5467 11.2267 10 11.2267C9.45333 11.2267 9 10.7733 9 10.2267V8.91999C9 5.33333 11.8933 2.02666 15.32 1.69333C17.32 1.50666 19.24 2.13333 20.7067 3.47999C22.16 4.79999 23 6.69333 23 8.66666V10.5067C23 11.0533 22.5467 11.5067 22 11.5067Z" fill="#292D32"/>
<path d="M20 30.3333H12C5.84 30.3333 4.69334 27.4667 4.4 24.68L3.4 16.6933C3.25334 15.2533 3.2 13.1867 4.6 11.64C5.8 10.3067 7.78667 9.66667 10.6667 9.66667H21.3333C24.2267 9.66667 26.2133 10.32 27.4 11.64C28.7867 13.1867 28.7467 15.2533 28.6 16.6667L27.6 24.68C27.3067 27.4667 26.16 30.3333 20 30.3333ZM10.6667 11.6667C8.41334 11.6667 6.86667 12.1067 6.08 12.9867C5.42667 13.7067 5.21334 14.8133 5.38667 16.4667L6.38667 24.4533C6.61334 26.5867 7.2 28.3467 12 28.3467H20C24.8 28.3467 25.3867 26.6 25.6133 24.48L26.6133 16.4667C26.7867 14.84 26.5733 13.7333 25.92 13C25.1333 12.1067 23.5867 11.6667 21.3333 11.6667H10.6667Z" fill="#292D32"/>
<path d="M20.56 17.5334C19.8133 17.5334 19.2133 16.9334 19.2133 16.2C19.2133 15.4667 19.8133 14.8667 20.5467 14.8667C21.28 14.8667 21.88 15.4667 21.88 16.2C21.88 16.9334 21.2933 17.5334 20.56 17.5334Z" fill="#292D32"/>
<path d="M11.2267 17.5334C10.48 17.5334 9.88 16.9334 9.88 16.2C9.88 15.4667 10.48 14.8667 11.2133 14.8667C11.9467 14.8667 12.5467 15.4667 12.5467 16.2C12.5467 16.9334 11.96 17.5334 11.2267 17.5334Z" fill="#292D32"/>
</svg>
