<svg width="36" height="36" viewBox="0 0 36 36" fill="none" xmlns="http://www.w3.org/2000/svg">
<path d="M33.9966 27.6797C32.6939 26.3672 29.539 24.4518 28.0083 23.6799C26.0149 22.6758 25.8509 22.5938 24.2841 23.7578C23.239 24.5346 22.5442 25.2286 21.3211 24.9678C20.098 24.7069 17.4402 23.2361 15.113 20.9162C12.7857 18.5964 11.2296 15.8615 10.9679 14.6425C10.7063 13.4235 11.4117 12.7369 12.1812 11.6894C13.2656 10.2128 13.1836 9.9667 12.2566 7.97334C11.5339 6.42295 9.56274 3.29756 8.24531 2.00146C6.83602 0.609392 6.83602 0.855486 5.92793 1.23283C5.18861 1.54382 4.47935 1.92193 3.80906 2.3624C2.49656 3.23439 1.76813 3.95873 1.25871 5.04728C0.749298 6.13584 0.520431 8.68783 3.15117 13.467C5.78192 18.2461 7.62762 20.6898 11.4478 24.4994C15.268 28.3089 18.2055 30.3572 22.4999 32.7656C27.8122 35.7409 29.8499 35.161 30.9417 34.6524C32.0336 34.1438 32.7612 33.4219 33.6348 32.1094C34.0764 31.4402 34.4553 30.7318 34.7668 29.993C35.145 29.0882 35.3911 29.0882 33.9966 27.6797Z" stroke="#0D0C0C" stroke-miterlimit="10"/>
</svg>
