<svg width="36" height="42" viewBox="0 0 36 42" fill="none" xmlns="http://www.w3.org/2000/svg">
<path d="M32.4375 6.50932H24.596V3.99194C24.596 1.82041 22.83 0.0544434 20.6585 0.0544434H15.4236C13.252 0.0544434 11.4861 1.82041 11.4861 3.99194V6.50932H3.5625C2.11284 6.50932 0.9375 7.68466 0.9375 9.13432V39.3205C0.9375 40.7702 2.11284 41.9455 3.5625 41.9455H32.4375C33.8872 41.9455 35.0625 40.7702 35.0625 39.3205V9.13432C35.0625 7.68466 33.8872 6.50932 32.4375 6.50932ZM14.1111 3.99194C14.1111 3.26744 14.6991 2.67944 15.4236 2.67944H20.6585C21.383 2.67944 21.971 3.26744 21.971 3.99194V6.50932H14.1111V3.99194ZM32.4375 39.3205H3.56254V9.13432H11.4861V11.8348C11.4861 11.8348 11.4513 13.1459 12.7908 13.1459C14.2673 13.1459 14.1111 11.8348 14.1111 11.8348V9.13432H21.9711V11.8348C21.9711 11.8348 21.8838 13.1525 23.2783 13.1525C24.5908 13.1525 24.5961 11.8348 24.5961 11.8348V9.13432H32.4376L32.4375 39.3205Z" fill="#0D0C0C"/>
</svg>
