<svg width="30" height="26" viewBox="0 0 30 26" fill="none" xmlns="http://www.w3.org/2000/svg">
<path d="M28.3331 8.816C28.3377 10.8677 27.5473 12.8413 26.1278 14.3227C22.8731 17.6973 19.7158 21.216 16.3411 24.4667C15.5665 25.2 14.3385 25.1733 13.5985 24.4067L3.87181 14.324C0.931809 11.276 0.931809 6.356 3.87181 3.30933C4.56666 2.58 5.40239 1.99936 6.32833 1.60263C7.25427 1.2059 8.25112 1.00133 9.25847 1.00133C10.2658 1.00133 11.2627 1.2059 12.1886 1.60263C13.1146 1.99936 13.9503 2.58 14.6451 3.30933L14.9998 3.67467L15.3531 3.30933C16.0488 2.58099 16.8847 2.00093 17.8104 1.60406C18.7361 1.20719 19.7326 1.00171 20.7398 1C22.7665 1 24.7038 1.832 26.1265 3.30933C27.5465 4.79046 28.3374 6.76415 28.3331 8.816Z" stroke="black" stroke-width="1.5" stroke-linejoin="round"/>
</svg>
