<svg width="23" height="24" viewBox="0 0 23 24" fill="none" xmlns="http://www.w3.org/2000/svg">
<path d="M16.6666 15.1666H15.6133L15.24 14.8066C16.0732 13.8386 16.6822 12.6983 17.0234 11.4675C17.3645 10.2366 17.4294 8.9455 17.2133 7.68663C16.5866 3.97997 13.4933 1.01997 9.75997 0.566633C8.44745 0.400587 7.11435 0.536995 5.86267 0.965418C4.61098 1.39384 3.47389 2.10292 2.53841 3.03841C1.60292 3.97389 0.893842 5.11098 0.465418 6.36267C0.0369953 7.61435 -0.0994126 8.94745 0.0666331 10.26C0.519966 13.9933 3.47997 17.0866 7.18663 17.7133C8.4455 17.9294 9.73657 17.8645 10.9675 17.5234C12.1983 17.1822 13.3386 16.5732 14.3066 15.74L14.6666 16.1133V17.1666L20.3333 22.8333C20.88 23.38 21.7733 23.38 22.32 22.8333C22.8666 22.2866 22.8666 21.3933 22.32 20.8466L16.6666 15.1666ZM8.66663 15.1666C5.34663 15.1666 2.66663 12.4866 2.66663 9.16663C2.66663 5.84663 5.34663 3.16663 8.66663 3.16663C11.9866 3.16663 14.6666 5.84663 14.6666 9.16663C14.6666 12.4866 11.9866 15.1666 8.66663 15.1666Z" fill="#696767"/>
</svg>
