<svg width="24" height="25" viewBox="0 0 24 25" fill="none" xmlns="http://www.w3.org/2000/svg">
<path d="M5.19001 6.88C5.00001 6.88 4.8 6.8 4.66 6.66C4.37 6.37 4.37 5.89 4.66 5.6L8.29 1.97C8.58001 1.68 9.06001 1.68 9.35001 1.97C9.64001 2.26 9.64001 2.74 9.35001 3.03L5.72 6.66C5.57 6.8 5.38001 6.88 5.19001 6.88Z" fill="white"/>
<path d="M18.81 6.88C18.62 6.88 18.43 6.81 18.28 6.66L14.65 3.03C14.36 2.74 14.36 2.26 14.65 1.97C14.94 1.68 15.42 1.68 15.71 1.97L19.34 5.6C19.63 5.89 19.63 6.37 19.34 6.66C19.2 6.8 19 6.88 18.81 6.88Z" fill="white"/>
<path d="M20.21 11.1C20.14 11.1 20.07 11.1 20 11.1H19.77H4C3.3 11.11 2.5 11.11 1.92 10.53C1.46 10.08 1.25 9.38001 1.25 8.35001C1.25 5.60001 3.26 5.60001 4.22 5.60001H19.78C20.74 5.60001 22.75 5.60001 22.75 8.35001C22.75 9.39001 22.54 10.08 22.08 10.53C21.56 11.05 20.86 11.1 20.21 11.1ZM4.22 9.60001H20.01C20.46 9.61001 20.88 9.61001 21.02 9.47001C21.09 9.40001 21.24 9.16001 21.24 8.35001C21.24 7.22001 20.96 7.10001 19.77 7.10001H4.22C3.03 7.10001 2.75 7.22001 2.75 8.35001C2.75 9.16001 2.91 9.40001 2.97 9.47001C3.11 9.60001 3.54 9.60001 3.98 9.60001H4.22Z" fill="white"/>
<path d="M9.75999 18.8C9.34999 18.8 9.00999 18.46 9.00999 18.05V14.5C9.00999 14.09 9.34999 13.75 9.75999 13.75C10.17 13.75 10.51 14.09 10.51 14.5V18.05C10.51 18.47 10.17 18.8 9.75999 18.8Z" fill="white"/>
<path d="M14.36 18.8C13.95 18.8 13.61 18.46 13.61 18.05V14.5C13.61 14.09 13.95 13.75 14.36 13.75C14.77 13.75 15.11 14.09 15.11 14.5V18.05C15.11 18.47 14.77 18.8 14.36 18.8Z" fill="white"/>
<path d="M14.89 23.25H8.86C5.28 23.25 4.48 21.12 4.17 19.27L2.76 10.62C2.69 10.21 2.97 9.83 3.38 9.76C3.79 9.69 4.17 9.97 4.24 10.38L5.65 19.02C5.94 20.79 6.54 21.75 8.86 21.75H14.89C17.46 21.75 17.75 20.85 18.08 19.11L19.76 10.36C19.84 9.95 20.23 9.68 20.64 9.77C21.05 9.85 21.31 10.24 21.23 10.65L19.55 19.4C19.16 21.43 18.51 23.25 14.89 23.25Z" fill="white"/>
</svg>
