<svg width="16" height="18" viewBox="0 0 16 18" fill="none" xmlns="http://www.w3.org/2000/svg">
<path d="M16 14.6084C15.8943 15.4635 15.848 15.8345 15.4531 16.668L9.38965 17.9199C9.52903 17.0191 9.71461 16.324 10.0166 15.9072L16 14.6084ZM7.55469 8.71094L9.36621 8.31836V2.59277C10.0412 1.83504 10.4566 1.49458 11.2715 1.06445V7.90527L16 6.87891C15.8943 7.7337 15.8478 8.10428 15.4531 8.9375L11.2715 9.82129V11.7441L16 10.7441C15.8943 11.599 15.8478 11.9695 15.4531 12.8027L11.2715 13.666V13.6846L9.36621 14.0781V10.2236L7.55469 10.6064V13.0361L7.52344 13.042C7.10672 13.7728 6.51826 14.6506 5.95117 15.3516L0 16.4854C0.053359 15.7196 0.16451 15.2879 0.510742 14.5166L5.64941 13.4023V11.0098L0.886719 12.0176C0.94008 11.2518 1.05217 10.8201 1.39844 10.0488L5.64941 9.125V1.52832C6.32453 0.770461 6.73978 0.430164 7.55469 0V8.71094Z" fill="#10B981"/>
</svg>
