<svg width="24" height="25" viewBox="0 0 24 25" fill="none" xmlns="http://www.w3.org/2000/svg">
<path d="M19.2 20.0867C19.8365 20.0867 20.447 20.3396 20.8971 20.7897C21.3471 21.2398 21.6 21.8502 21.6 22.4867C21.6 23.1232 21.3471 23.7337 20.8971 24.1838C20.447 24.6339 19.8365 24.8867 19.2 24.8867C18.5635 24.8867 17.953 24.6339 17.5029 24.1838C17.0529 23.7337 16.8 23.1232 16.8 22.4867C16.8 21.1547 17.868 20.0867 19.2 20.0867ZM0 0.886719H3.924L5.052 3.28672H22.8C23.1183 3.28672 23.4235 3.41315 23.6485 3.63819C23.8736 3.86323 24 4.16846 24 4.48672C24 4.69072 23.94 4.89472 23.856 5.08672L19.56 12.8507C19.152 13.5827 18.36 14.0867 17.46 14.0867H8.52L7.44 16.0427L7.404 16.1867C7.404 16.2663 7.43561 16.3426 7.49187 16.3989C7.54813 16.4551 7.62444 16.4867 7.704 16.4867H21.6V18.8867H7.2C6.56348 18.8867 5.95303 18.6339 5.50294 18.1838C5.05286 17.7337 4.8 17.1232 4.8 16.4867C4.8 16.0667 4.908 15.6707 5.088 15.3347L6.72 12.3947L2.4 3.28672H0V0.886719ZM7.2 20.0867C7.83652 20.0867 8.44697 20.3396 8.89706 20.7897C9.34714 21.2398 9.6 21.8502 9.6 22.4867C9.6 23.1232 9.34714 23.7337 8.89706 24.1838C8.44697 24.6339 7.83652 24.8867 7.2 24.8867C6.56348 24.8867 5.95303 24.6339 5.50294 24.1838C5.05286 23.7337 4.8 23.1232 4.8 22.4867C4.8 21.1547 5.868 20.0867 7.2 20.0867ZM18 11.6867L21.336 5.68672H6.168L9 11.6867H18Z" stroke-width="1" fill="white"/>
</svg>
