<svg width="28" height="28" viewBox="0 0 28 28" fill="none" xmlns="http://www.w3.org/2000/svg">
<path d="M12.7267 25.0003H3.66667C2.95942 25.0003 2.28115 24.7194 1.78105 24.2193C1.28095 23.7192 1 23.0409 1 22.3337V6.33366C1 5.62641 1.28095 4.94814 1.78105 4.44804C2.28115 3.94794 2.95942 3.66699 3.66667 3.66699H19.6667C20.3739 3.66699 21.0522 3.94794 21.5523 4.44804C22.0524 4.94814 22.3333 5.62641 22.3333 6.33366V11.667" stroke="black" stroke-width="2" stroke-linecap="round" stroke-linejoin="round"/>
<path d="M17 1V6.33333M6.33333 1V6.33333M1 11.6667H22.3333M15.6667 21C15.6667 22.4145 16.2286 23.771 17.2288 24.7712C18.229 25.7714 19.5855 26.3333 21 26.3333C22.4145 26.3333 23.771 25.7714 24.7712 24.7712C25.7714 23.771 26.3333 22.4145 26.3333 21C26.3333 19.5855 25.7714 18.229 24.7712 17.2288C23.771 16.2286 22.4145 15.6667 21 15.6667C19.5855 15.6667 18.229 16.2286 17.2288 17.2288C16.2286 18.229 15.6667 19.5855 15.6667 21Z" stroke="black" stroke-width="2" stroke-linecap="round" stroke-linejoin="round"/>
<path d="M21 18.9951V21.0005L22.3333 22.3338" stroke="black" stroke-width="2" stroke-linecap="round" stroke-linejoin="round"/>
</svg>
