<svg width="16" height="31" viewBox="0 0 16 31" fill="none" xmlns="http://www.w3.org/2000/svg">
<path d="M15.1075 28.4499L3.57997 16.7374C3.32715 16.4819 3.18534 16.1369 3.18534 15.7774C3.18534 15.4179 3.32715 15.073 3.57997 14.8174L15.105 3.10491C15.3577 2.84777 15.4992 2.50168 15.4992 2.14116C15.4992 1.78065 15.3577 1.43455 15.105 1.17741C14.9815 1.05079 14.834 0.95016 14.671 0.881451C14.5081 0.812742 14.3331 0.777344 14.1562 0.777344C13.9794 0.777344 13.8043 0.812742 13.6414 0.881451C13.4784 0.95016 13.3309 1.05079 13.2075 1.17741L1.68247 12.8874C0.925153 13.6587 0.500854 14.6965 0.500854 15.7774C0.500854 16.8584 0.925153 17.8961 1.68247 18.6674L13.2075 30.3774C13.3309 30.5044 13.4786 30.6054 13.6418 30.6743C13.805 30.7432 13.9803 30.7788 14.1575 30.7788C14.3346 30.7788 14.5099 30.7432 14.6731 30.6743C14.8363 30.6054 14.984 30.5044 15.1075 30.3774C15.3602 30.1203 15.5017 29.7742 15.5017 29.4137C15.5017 29.0531 15.3602 28.7071 15.1075 28.4499Z" fill="black"/>
</svg>
