<svg width="20" height="23" viewBox="0 0 20 23" fill="none" xmlns="http://www.w3.org/2000/svg">
<path d="M1 9.73396L1.747 9.66996C1.72978 9.47788 1.63924 9.29981 1.49416 9.17274C1.34909 9.04566 1.16064 8.97936 0.967959 8.9876C0.775279 8.99584 0.593177 9.07798 0.459478 9.21697C0.325779 9.35596 0.250759 9.54111 0.25 9.73396H1ZM18.236 11.557L17.53 15.637L19.009 15.893L19.714 11.813L18.236 11.557ZM11.245 20.75H6.596V22.25H11.245V20.75ZM5.685 19.913L4.873 10.52L3.378 10.649L4.191 20.042L5.685 19.913ZM17.53 15.637C17.023 18.567 14.381 20.75 11.245 20.75V22.25C15.071 22.25 18.371 19.581 19.009 15.893L17.53 15.637ZM11.255 4.59997L10.592 8.64497L12.072 8.88696L12.735 4.84297L11.255 4.59997ZM5.188 9.74597L6.627 8.50596L5.647 7.36997L4.21 8.60996L5.188 9.74597ZM9.244 4.47197L9.72 2.63797L8.268 2.26197L7.792 4.09496L9.244 4.47197ZM10.438 2.27797L10.583 2.32497L11.042 0.896965L10.897 0.849965L10.438 2.27797ZM8.523 6.31597C8.83519 5.73187 9.0772 5.11291 9.244 4.47197L7.792 4.09496C7.65421 4.62125 7.45553 5.12969 7.2 5.60997L8.523 6.31597ZM10.583 2.32497C10.7255 2.36862 10.8547 2.44735 10.9588 2.55393C11.063 2.66051 11.1387 2.79152 11.179 2.93497L12.631 2.55897C12.5281 2.17026 12.3284 1.81397 12.0505 1.52334C11.7727 1.23271 11.4257 1.01721 11.042 0.896965L10.583 2.32497ZM9.72 2.63797C9.74024 2.56608 9.77572 2.4994 9.82404 2.44245C9.87235 2.38551 9.93237 2.33964 10 2.30797L9.349 0.956965C8.817 1.21297 8.417 1.68697 8.268 2.26197L9.72 2.63797ZM10 2.30797C10.137 2.24299 10.2935 2.23227 10.438 2.27797L10.897 0.849965C10.3863 0.686696 9.83242 0.724979 9.349 0.956965L10 2.30797ZM12.154 10.484H17.334V8.98396H12.154V10.484ZM2.719 20.906L1.747 9.66996L0.253 9.79896L1.223 21.035L2.719 20.906ZM1.75 21.013V9.73396H0.25V21.013H1.75ZM1.223 21.035C1.21995 20.9986 1.22549 20.962 1.23733 20.9276C1.24918 20.8931 1.26807 20.8614 1.2928 20.8346C1.31753 20.8078 1.34757 20.7864 1.381 20.7719C1.41443 20.7573 1.45053 20.7498 1.487 20.75V22.25C2.213 22.25 2.781 21.628 2.719 20.906L1.223 21.035ZM12.735 4.84297C12.8607 4.08275 12.8253 3.30461 12.631 2.55897L11.179 2.93597C11.3208 3.47915 11.3467 4.04611 11.255 4.59997L12.735 4.84297ZM6.596 20.75C6.36701 20.7496 6.14648 20.6634 5.97785 20.5085C5.80923 20.3536 5.70475 20.1411 5.685 19.913L4.191 20.042C4.24303 20.6441 4.51888 21.2049 4.96411 21.6137C5.40933 22.0224 5.99159 22.2495 6.596 22.25V20.75ZM6.627 8.50596C7.307 7.91996 8.039 7.22297 8.524 6.31597L7.2 5.60997C6.854 6.25897 6.303 6.80596 5.647 7.36997L6.627 8.50596ZM19.714 11.813C19.7742 11.466 19.7578 11.11 19.666 10.77C19.5741 10.4299 19.4091 10.1141 19.1823 9.84462C18.9556 9.57511 18.6727 9.35843 18.3534 9.20976C18.0341 9.06109 17.6862 8.98403 17.334 8.98396V10.484C17.901 10.484 18.334 10.996 18.236 11.557L19.714 11.813ZM1.487 20.75C1.633 20.75 1.75 20.868 1.75 21.013H0.25C0.25 21.695 0.803 22.25 1.487 22.25V20.75ZM10.592 8.64497C10.5547 8.87154 10.5672 9.10352 10.6285 9.3248C10.6899 9.54609 10.7986 9.75138 10.9472 9.92643C11.0958 10.1015 11.2807 10.2421 11.4891 10.3386C11.6975 10.435 11.9244 10.484 12.154 10.484V8.98396C12.1418 8.98402 12.1297 8.98238 12.1187 8.97724C12.1076 8.9721 12.0978 8.96459 12.09 8.95523C12.0821 8.94587 12.0765 8.9349 12.0734 8.9231C12.0703 8.9113 12.0698 8.89896 12.072 8.88696L10.592 8.64497ZM4.873 10.52C4.8608 10.3752 4.88208 10.2295 4.937 10.095C4.99193 9.96046 5.07794 9.84085 5.188 9.74597L4.208 8.60897C3.91814 8.8591 3.69177 9.17444 3.54748 9.52907C3.4032 9.88371 3.34511 10.2675 3.378 10.649L4.873 10.52Z" fill="black"/>
</svg>
