<svg width="20" height="17" viewBox="0 0 20 17" fill="none" xmlns="http://www.w3.org/2000/svg">
<path d="M7 16.5C6.68333 16.5 6.38333 16.429 6.1 16.287C5.81667 16.145 5.58333 15.9493 5.4 15.7L0 8.5L5.4 1.3C5.58333 1.05 5.81667 0.854333 6.1 0.713C6.38333 0.571666 6.68333 0.500667 7 0.5H18C18.55 0.5 19.021 0.695667 19.413 1.087C19.805 1.47833 20.0007 1.94933 20 2.5V14.5C20 15.05 19.8043 15.521 19.413 15.913C19.0217 16.305 18.5507 16.5007 18 16.5H7ZM2.5 8.5L7 14.5H18V2.5H7L2.5 8.5ZM8 9.5C8.28333 9.5 8.521 9.404 8.713 9.212C8.905 9.02 9.00067 8.78267 9 8.5C8.99933 8.21733 8.90333 7.98 8.712 7.788C8.52067 7.596 8.28333 7.5 8 7.5C7.71667 7.5 7.47933 7.596 7.288 7.788C7.09667 7.98 7.00067 8.21733 7 8.5C6.99933 8.78267 7.09533 9.02033 7.288 9.213C7.48067 9.40567 7.718 9.50133 8 9.5ZM11.5 9.5C11.7833 9.5 12.021 9.404 12.213 9.212C12.405 9.02 12.5007 8.78267 12.5 8.5C12.4993 8.21733 12.4033 7.98 12.212 7.788C12.0207 7.596 11.7833 7.5 11.5 7.5C11.2167 7.5 10.9793 7.596 10.788 7.788C10.5967 7.98 10.5007 8.21733 10.5 8.5C10.4993 8.78267 10.5953 9.02033 10.788 9.213C10.9807 9.40567 11.218 9.50133 11.5 9.5ZM15 9.5C15.2833 9.5 15.521 9.404 15.713 9.212C15.905 9.02 16.0007 8.78267 16 8.5C15.9993 8.21733 15.9033 7.98 15.712 7.788C15.5207 7.596 15.2833 7.5 15 7.5C14.7167 7.5 14.4793 7.596 14.288 7.788C14.0967 7.98 14.0007 8.21733 14 8.5C13.9993 8.78267 14.0953 9.02033 14.288 9.213C14.4807 9.40567 14.718 9.50133 15 9.5Z" fill="black"/>
</svg>
