<svg width="54" height="54" viewBox="0 0 54 54" fill="none" xmlns="http://www.w3.org/2000/svg">
<path fill-rule="evenodd" clip-rule="evenodd" d="M26.9997 50.9997C40.2543 50.9997 50.9997 40.2543 50.9997 26.9997C50.9997 13.745 40.2543 2.99967 26.9997 2.99967C13.745 2.99967 2.99967 13.745 2.99967 26.9997C2.99967 40.2543 13.745 50.9997 26.9997 50.9997ZM26.9997 53.6663C41.7277 53.6663 53.6663 41.7277 53.6663 26.9997C53.6663 12.2717 41.7277 0.333008 26.9997 0.333008C12.2717 0.333008 0.333008 12.2717 0.333008 26.9997C0.333008 41.7277 12.2717 53.6663 26.9997 53.6663Z" fill="#48BF03"/>
<path fill-rule="evenodd" clip-rule="evenodd" d="M41.2265 16.678C41.4888 16.915 41.6463 17.2464 41.6643 17.5995C41.6823 17.9525 41.5594 18.2982 41.3225 18.5607L23.5145 38.242L12.7465 27.9633C12.5047 27.7162 12.3684 27.3849 12.3662 27.0392C12.3641 26.6934 12.4963 26.3604 12.735 26.1103C12.9737 25.8602 13.3002 25.7126 13.6456 25.6986C13.991 25.6846 14.3284 25.8054 14.5865 26.0353L23.3732 34.422L39.3452 16.7727C39.4627 16.6428 39.6047 16.5373 39.763 16.4623C39.9214 16.3873 40.0929 16.3443 40.2679 16.3356C40.4428 16.3269 40.6178 16.3528 40.7827 16.4118C40.9477 16.4708 41.0994 16.5617 41.2292 16.6793" fill="#48BF03"/>
</svg>
