<svg width="36" height="36" viewBox="0 0 36 36" fill="none" xmlns="http://www.w3.org/2000/svg">
<path fill-rule="evenodd" clip-rule="evenodd" d="M35.5 18C35.5 27.6652 27.6652 35.5 18 35.5C8.33475 35.5 0.5 27.6652 0.5 18C0.5 8.33475 8.33475 0.5 18 0.5C27.6652 0.5 35.5 8.33475 35.5 18ZM11.1943 24.8057C11.0302 24.6417 10.9381 24.4191 10.9381 24.1871C10.9381 23.9551 11.0302 23.7326 11.1943 23.5685L16.7628 18L11.1943 12.4315C11.0349 12.2665 10.9467 12.0454 10.9487 11.816C10.9507 11.5866 11.0427 11.3671 11.2049 11.2049C11.3671 11.0427 11.5866 10.9507 11.816 10.9487C12.0454 10.9467 12.2665 11.0349 12.4315 11.1943L18 16.7628L23.5685 11.1943C23.7335 11.0349 23.9546 10.9467 24.184 10.9487C24.4134 10.9507 24.6329 11.0427 24.7951 11.2049C24.9573 11.3671 25.0493 11.5866 25.0513 11.816C25.0533 12.0454 24.9651 12.2665 24.8057 12.4315L19.2372 18L24.8057 23.5685C24.9651 23.7335 25.0533 23.9546 25.0513 24.184C25.0493 24.4134 24.9573 24.6329 24.7951 24.7951C24.6329 24.9573 24.4134 25.0493 24.184 25.0513C23.9546 25.0533 23.7335 24.9651 23.5685 24.8057L18 19.2372L12.4315 24.8057C12.2674 24.9698 12.0449 25.0619 11.8129 25.0619C11.5809 25.0619 11.3583 24.9698 11.1943 24.8057Z" fill="#BFBDBD"/>
</svg>
