<svg width="24" height="24" viewBox="0 0 24 24" fill="none" xmlns="http://www.w3.org/2000/svg">
<path d="M5.18976 6.38019C4.99976 6.38019 4.79976 6.30019 4.65976 6.16019C4.36976 5.87019 4.36976 5.39019 4.65976 5.10019L8.28976 1.47019C8.57976 1.18019 9.05976 1.18019 9.34976 1.47019C9.63976 1.76019 9.63976 2.24019 9.34976 2.53019L5.71976 6.16019C5.56976 6.30019 5.37976 6.38019 5.18976 6.38019Z" fill="white"/>
<path d="M18.81 6.38019C18.62 6.38019 18.43 6.31019 18.28 6.16019L14.65 2.53019C14.36 2.24019 14.36 1.76019 14.65 1.47019C14.94 1.18019 15.42 1.18019 15.71 1.47019L19.34 5.10019C19.63 5.39019 19.63 5.87019 19.34 6.16019C19.2 6.30019 19 6.38019 18.81 6.38019Z" fill="white"/>
<path d="M20.2101 10.6001C20.1401 10.6001 20.0701 10.6001 20.0001 10.6001H19.7701H4.00012C3.30012 10.6101 2.50012 10.6101 1.92012 10.0301C1.46012 9.5801 1.25012 8.8801 1.25012 7.8501C1.25012 5.1001 3.26012 5.1001 4.22012 5.1001H19.7801C20.7401 5.1001 22.7501 5.1001 22.7501 7.8501C22.7501 8.8901 22.5401 9.5801 22.0801 10.0301C21.5601 10.5501 20.8601 10.6001 20.2101 10.6001ZM4.22012 9.1001H20.0101C20.4601 9.1101 20.8801 9.1101 21.0201 8.9701C21.0901 8.9001 21.2401 8.6601 21.2401 7.8501C21.2401 6.7201 20.9601 6.6001 19.7701 6.6001H4.22012C3.03012 6.6001 2.75012 6.7201 2.75012 7.8501C2.75012 8.6601 2.91012 8.9001 2.97012 8.9701C3.11012 9.1001 3.54012 9.1001 3.98012 9.1001H4.22012Z" fill="white"/>
<path d="M9.75964 18.2998C9.34964 18.2998 9.00964 17.9598 9.00964 17.5498V13.9998C9.00964 13.5898 9.34964 13.2498 9.75964 13.2498C10.1696 13.2498 10.5096 13.5898 10.5096 13.9998V17.5498C10.5096 17.9698 10.1696 18.2998 9.75964 18.2998Z" fill="white"/>
<path d="M14.3605 18.2998C13.9505 18.2998 13.6105 17.9598 13.6105 17.5498V13.9998C13.6105 13.5898 13.9505 13.2498 14.3605 13.2498C14.7705 13.2498 15.1105 13.5898 15.1105 13.9998V17.5498C15.1105 17.9698 14.7705 18.2998 14.3605 18.2998Z" fill="white"/>
<path d="M14.8896 22.7498H8.85963C5.27963 22.7498 4.47963 20.6198 4.16963 18.7698L2.75963 10.1198C2.68963 9.70975 2.96963 9.32975 3.37963 9.25975C3.78963 9.18975 4.16963 9.46975 4.23963 9.87975L5.64963 18.5198C5.93963 20.2898 6.53963 21.2498 8.85963 21.2498H14.8896C17.4596 21.2498 17.7496 20.3498 18.0796 18.6098L19.7596 9.85975C19.8396 9.44975 20.2296 9.17975 20.6396 9.26975C21.0496 9.34975 21.3096 9.73975 21.2296 10.1498L19.5496 18.8998C19.1596 20.9298 18.5096 22.7498 14.8896 22.7498Z" fill="white"/>
</svg>
