<svg width="25" height="25" viewBox="0 0 25 25" fill="none" xmlns="http://www.w3.org/2000/svg">
<path d="M13.9002 17.92H11.3902C9.75016 17.92 8.42016 16.54 8.42016 14.84C8.42016 14.43 8.76016 14.09 9.17016 14.09C9.58016 14.09 9.92016 14.43 9.92016 14.84C9.92016 15.71 10.5802 16.42 11.3902 16.42H13.9002C14.5502 16.42 15.0902 15.84 15.0902 15.14C15.0902 14.27 14.7802 14.1 14.2702 13.92L10.2402 12.5C9.46016 12.23 8.41016 11.65 8.41016 9.85996C8.41016 8.31996 9.62016 7.07996 11.1002 7.07996H13.6102C15.2502 7.07996 16.5802 8.45996 16.5802 10.16C16.5802 10.57 16.2402 10.91 15.8302 10.91C15.4202 10.91 15.0802 10.57 15.0802 10.16C15.0802 9.28996 14.4202 8.57996 13.6102 8.57996H11.1002C10.4502 8.57996 9.91016 9.15996 9.91016 9.85996C9.91016 10.73 10.2202 10.9 10.7302 11.08L14.7602 12.5C15.5402 12.77 16.5902 13.35 16.5902 15.14C16.5802 16.67 15.3802 17.92 13.9002 17.92Z" fill="black"/>
<path d="M12.5 19.25C12.09 19.25 11.75 18.91 11.75 18.5V6.5C11.75 6.09 12.09 5.75 12.5 5.75C12.91 5.75 13.25 6.09 13.25 6.5V18.5C13.25 18.91 12.91 19.25 12.5 19.25Z" fill="black"/>
<path d="M12.5 23.25C6.57 23.25 1.75 18.43 1.75 12.5C1.75 6.57 6.57 1.75 12.5 1.75C18.43 1.75 23.25 6.57 23.25 12.5C23.25 18.43 18.43 23.25 12.5 23.25ZM12.5 3.25C7.4 3.25 3.25 7.4 3.25 12.5C3.25 17.6 7.4 21.75 12.5 21.75C17.6 21.75 21.75 17.6 21.75 12.5C21.75 7.4 17.6 3.25 12.5 3.25Z" fill="black"/>
</svg>
