<svg width="41" height="40" viewBox="0 0 41 40" fill="none" xmlns="http://www.w3.org/2000/svg">
<path d="M28.8335 35.4167H12.1668C6.0835 35.4167 2.5835 31.9167 2.5835 25.8334V14.1667C2.5835 8.08337 6.0835 4.58337 12.1668 4.58337H28.8335C34.9168 4.58337 38.4168 8.08337 38.4168 14.1667V25.8334C38.4168 31.9167 34.9168 35.4167 28.8335 35.4167ZM12.1668 7.08337C7.40016 7.08337 5.0835 9.40004 5.0835 14.1667V25.8334C5.0835 30.6 7.40016 32.9167 12.1668 32.9167H28.8335C33.6002 32.9167 35.9168 30.6 35.9168 25.8334V14.1667C35.9168 9.40004 33.6002 7.08337 28.8335 7.08337H12.1668Z" fill="#734EEB"/>
<path d="M20.4995 21.4499C19.0995 21.4499 17.6828 21.0166 16.5995 20.1333L11.3828 15.9666C10.8495 15.5333 10.7495 14.7499 11.1828 14.2166C11.6161 13.6833 12.3995 13.5833 12.9328 14.0166L18.1495 18.1833C19.4161 19.2 21.5661 19.2 22.8328 18.1833L28.0495 14.0166C28.5828 13.5833 29.3828 13.6666 29.7995 14.2166C30.2328 14.7499 30.1495 15.55 29.5995 15.9666L24.3828 20.1333C23.3161 21.0166 21.8995 21.4499 20.4995 21.4499Z" fill="#734EEB"/>
</svg>
