<svg width="41" height="40" viewBox="0 0 41 40" fill="none" xmlns="http://www.w3.org/2000/svg">
<path d="M25.0833 37.9167H17.5833V25.8333H16C15.0333 25.8333 14.25 25.05 14.25 24.0834V20.9166C14.25 19.95 15.0333 19.1667 16 19.1667H17.5833V15C17.5833 11.55 20.3833 8.75 23.8333 8.75H28.3334C29.3 8.75 30.0833 9.53331 30.0833 10.5V14.5C30.0833 15.4667 29.3 16.25 28.3334 16.25H25.0833V19.1667H28.2167C28.75 19.1667 29.2333 19.4 29.5667 19.8C29.9 20.2 30.0333 20.7333 29.9333 21.25L29.3 24.4167C29.1333 25.2333 28.4167 25.8167 27.5833 25.8167H25.0833V37.9167ZM20.0833 35.4167H22.5833V23.3333H26.9834L27.3167 21.6667H22.6V15.5C22.6 14.5333 23.3833 13.75 24.35 13.75H27.6V11.25H23.8333C21.7667 11.25 20.0833 12.9333 20.0833 15V21.6667H16.75V23.3333H20.0833V35.4167Z" fill="#734EEB"/>
<path d="M25.5002 37.9167H15.5002C6.45016 37.9167 2.5835 34.05 2.5835 25V15C2.5835 5.95004 6.45016 2.08337 15.5002 2.08337H25.5002C34.5502 2.08337 38.4168 5.95004 38.4168 15V25C38.4168 34.05 34.5502 37.9167 25.5002 37.9167ZM15.5002 4.58337C7.81683 4.58337 5.0835 7.31671 5.0835 15V25C5.0835 32.6834 7.81683 35.4167 15.5002 35.4167H25.5002C33.1835 35.4167 35.9168 32.6834 35.9168 25V15C35.9168 7.31671 33.1835 4.58337 25.5002 4.58337H15.5002Z" fill="#734EEB"/>
</svg>
