<svg width="41" height="40" viewBox="0 0 41 40" fill="none" xmlns="http://www.w3.org/2000/svg">
<path d="M25.4999 37.9166H15.4999C6.44992 37.9166 2.58325 34.05 2.58325 25V15C2.58325 5.94998 6.44992 2.08331 15.4999 2.08331H25.4999C34.5499 2.08331 38.4166 5.94998 38.4166 15V25C38.4166 34.05 34.5499 37.9166 25.4999 37.9166ZM15.4999 4.58331C7.81659 4.58331 5.08325 7.31665 5.08325 15V25C5.08325 32.6833 7.81659 35.4166 15.4999 35.4166H25.4999C33.1833 35.4166 35.9166 32.6833 35.9166 25V15C35.9166 7.31665 33.1833 4.58331 25.4999 4.58331H15.4999Z" fill="#734EEB"/>
<path d="M20.5001 27.0834C16.6001 27.0834 13.4167 23.9 13.4167 20C13.4167 16.1 16.6001 12.9167 20.5001 12.9167C24.4001 12.9167 27.5834 16.1 27.5834 20C27.5834 23.9 24.4001 27.0834 20.5001 27.0834ZM20.5001 15.4167C17.9667 15.4167 15.9167 17.4667 15.9167 20C15.9167 22.5334 17.9667 24.5834 20.5001 24.5834C23.0334 24.5834 25.0834 22.5334 25.0834 20C25.0834 17.4667 23.0334 15.4167 20.5001 15.4167Z" fill="#734EEB"/>
<path d="M28.8334 12.5C28.6167 12.5 28.4001 12.45 28.2001 12.3666C28.0001 12.2833 27.8167 12.1666 27.6501 12.0166C27.5001 11.85 27.3667 11.6666 27.2834 11.4666C27.2001 11.2666 27.1667 11.05 27.1667 10.8333C27.1667 10.6166 27.2001 10.4 27.2834 10.2C27.3834 9.9833 27.5001 9.81663 27.6501 9.64996C27.7334 9.5833 27.8167 9.49996 27.9001 9.44996C28.0001 9.3833 28.1001 9.3333 28.2001 9.29996C28.3001 9.24996 28.4001 9.21663 28.5167 9.19996C29.0501 9.0833 29.6167 9.26663 30.0167 9.64996C30.1667 9.81663 30.2834 9.9833 30.3667 10.2C30.4501 10.4 30.5001 10.6166 30.5001 10.8333C30.5001 11.05 30.4501 11.2666 30.3667 11.4666C30.2834 11.6666 30.1667 11.85 30.0167 12.0166C29.8501 12.1666 29.6667 12.2833 29.4667 12.3666C29.2667 12.45 29.0501 12.5 28.8334 12.5Z" fill="#734EEB"/>
</svg>
