<svg width="41" height="40" viewBox="0 0 41 40" fill="none" xmlns="http://www.w3.org/2000/svg">
<path d="M20.4998 23.6167C16.9498 23.6167 14.0498 20.7333 14.0498 17.1667C14.0498 13.6 16.9498 10.7333 20.4998 10.7333C24.0498 10.7333 26.9498 13.6167 26.9498 17.1833C26.9498 20.75 24.0498 23.6167 20.4998 23.6167ZM20.4998 13.2333C18.3331 13.2333 16.5498 15 16.5498 17.1833C16.5498 19.3667 18.3165 21.1333 20.4998 21.1333C22.6831 21.1333 24.4498 19.3667 24.4498 17.1833C24.4498 15 22.6665 13.2333 20.4998 13.2333Z" fill="#734EEB"/>
<path d="M20.4998 37.9334C18.0331 37.9334 15.5498 37 13.6165 35.15C8.6998 30.4167 3.26647 22.8667 5.31647 13.8834C7.16647 5.73337 14.2831 2.08337 20.4998 2.08337C20.4998 2.08337 20.4998 2.08337 20.5165 2.08337C26.7331 2.08337 33.8498 5.73337 35.6998 13.9C37.7331 22.8834 32.2998 30.4167 27.3831 35.15C25.4498 37 22.9665 37.9334 20.4998 37.9334ZM20.4998 4.58337C15.6498 4.58337 9.41647 7.16671 7.76647 14.4334C5.96647 22.2834 10.8998 29.05 15.3665 33.3334C18.2498 36.1167 22.7665 36.1167 25.6498 33.3334C30.0998 29.05 35.0331 22.2834 33.2665 14.4334C31.5998 7.16671 25.3498 4.58337 20.4998 4.58337Z" fill="#734EEB"/>
</svg>
