<svg width="41" height="40" viewBox="0 0 41 40" fill="none" xmlns="http://www.w3.org/2000/svg">
<path d="M29.5835 37.9167C27.7002 37.9167 25.7168 37.4667 23.6668 36.6C21.6668 35.75 19.6502 34.5834 17.6835 33.1667C15.7335 31.7334 13.8502 30.1334 12.0668 28.3834C10.3002 26.6 8.70016 24.7167 7.2835 22.7834C5.85016 20.7834 4.70016 18.7834 3.8835 16.85C3.01683 14.7834 2.5835 12.7834 2.5835 10.9C2.5835 9.60004 2.81683 8.36671 3.26683 7.21671C3.7335 6.03337 4.4835 4.93337 5.50016 3.98337C6.7835 2.71671 8.25016 2.08337 9.81683 2.08337C10.4668 2.08337 11.1335 2.23337 11.7002 2.50004C12.3502 2.80004 12.9002 3.25004 13.3002 3.85004L17.1668 9.30004C17.5168 9.78337 17.7835 10.25 17.9668 10.7167C18.1835 11.2167 18.3002 11.7167 18.3002 12.2C18.3002 12.8334 18.1168 13.45 17.7668 14.0334C17.5168 14.4834 17.1335 14.9667 16.6502 15.45L15.5168 16.6334C15.5335 16.6834 15.5502 16.7167 15.5668 16.75C15.7668 17.1 16.1668 17.7 16.9335 18.6C17.7502 19.5334 18.5168 20.3834 19.2835 21.1667C20.2668 22.1334 21.0835 22.9 21.8502 23.5334C22.8002 24.3334 23.4168 24.7334 23.7835 24.9167L23.7502 25L24.9668 23.8C25.4835 23.2834 25.9835 22.9 26.4668 22.65C27.3835 22.0834 28.5502 21.9834 29.7168 22.4667C30.1502 22.65 30.6168 22.9 31.1168 23.25L36.6502 27.1834C37.2668 27.6 37.7168 28.1334 37.9835 28.7667C38.2335 29.4 38.3502 29.9834 38.3502 30.5667C38.3502 31.3667 38.1668 32.1667 37.8168 32.9167C37.4668 33.6667 37.0335 34.3167 36.4835 34.9167C35.5335 35.9667 34.5002 36.7167 33.3002 37.2C32.1502 37.6667 30.9002 37.9167 29.5835 37.9167ZM9.81683 4.58337C8.90016 4.58337 8.05016 4.98337 7.2335 5.78337C6.46683 6.50004 5.9335 7.28337 5.60016 8.13337C5.25016 9.00004 5.0835 9.91671 5.0835 10.9C5.0835 12.45 5.45016 14.1334 6.1835 15.8667C6.9335 17.6334 7.9835 19.4667 9.31683 21.3C10.6502 23.1334 12.1668 24.9167 13.8335 26.6C15.5002 28.25 17.3002 29.7834 19.1502 31.1334C20.9502 32.45 22.8002 33.5167 24.6335 34.2834C27.4835 35.5 30.1502 35.7834 32.3502 34.8667C33.2002 34.5167 33.9502 33.9834 34.6335 33.2167C35.0168 32.8 35.3168 32.35 35.5668 31.8167C35.7668 31.4 35.8668 30.9667 35.8668 30.5334C35.8668 30.2667 35.8168 30 35.6835 29.7C35.6335 29.6 35.5335 29.4167 35.2168 29.2L29.6835 25.2667C29.3502 25.0334 29.0502 24.8667 28.7668 24.75C28.4002 24.6 28.2502 24.45 27.6835 24.8C27.3502 24.9667 27.0502 25.2167 26.7168 25.55L25.4502 26.8C24.8002 27.4334 23.8002 27.5834 23.0335 27.3L22.5835 27.1C21.9002 26.7334 21.1002 26.1667 20.2168 25.4167C19.4168 24.7334 18.5502 23.9334 17.5002 22.9C16.6835 22.0667 15.8668 21.1834 15.0168 20.2C14.2335 19.2834 13.6668 18.5 13.3168 17.85L13.1168 17.35C13.0168 16.9667 12.9835 16.75 12.9835 16.5167C12.9835 15.9167 13.2002 15.3834 13.6168 14.9667L14.8668 13.6667C15.2002 13.3334 15.4502 13.0167 15.6168 12.7334C15.7502 12.5167 15.8002 12.3334 15.8002 12.1667C15.8002 12.0334 15.7502 11.8334 15.6668 11.6334C15.5502 11.3667 15.3668 11.0667 15.1335 10.75L11.2668 5.28337C11.1002 5.05004 10.9002 4.88337 10.6502 4.76671C10.3835 4.65004 10.1002 4.58337 9.81683 4.58337ZM23.7502 25.0167L23.4835 26.15L23.9335 24.9834C23.8502 24.9667 23.7835 24.9834 23.7502 25.0167Z" fill="#734EEB"/>
<path d="M31.3333 16.25C30.65 16.25 30.0833 15.6833 30.0833 15C30.0833 14.4 29.4833 13.15 28.4833 12.0833C27.5 11.0333 26.4167 10.4166 25.5 10.4166C24.8167 10.4166 24.25 9.84996 24.25 9.16663C24.25 8.48329 24.8167 7.91663 25.5 7.91663C27.1167 7.91663 28.8167 8.78329 30.3 10.3666C31.6833 11.85 32.5833 13.6666 32.5833 15C32.5833 15.6833 32.0167 16.25 31.3333 16.25Z" fill="#734EEB"/>
<path d="M37.1667 16.25C36.4833 16.25 35.9167 15.6834 35.9167 15C35.9167 9.25004 31.25 4.58337 25.5 4.58337C24.8167 4.58337 24.25 4.01671 24.25 3.33337C24.25 2.65004 24.8167 2.08337 25.5 2.08337C32.6167 2.08337 38.4167 7.88337 38.4167 15C38.4167 15.6834 37.85 16.25 37.1667 16.25Z" fill="#734EEB"/>
</svg>
