<svg width="43" height="43" viewBox="0 0 43 43" fill="none" xmlns="http://www.w3.org/2000/svg">
<path d="M34.0417 21.5002C34.0417 21.9753 33.8529 22.4311 33.5169 22.7671C33.1809 23.1031 32.7252 23.2918 32.25 23.2918C31.7748 23.2918 31.3191 23.1031 30.9831 22.7671C30.6471 22.4311 30.4583 21.9753 30.4583 21.5002C30.4583 21.025 30.6471 20.5693 30.9831 20.2333C31.3191 19.8973 31.7748 19.7085 32.25 19.7085C32.7252 19.7085 33.1809 19.8973 33.5169 20.2333C33.8529 20.5693 34.0417 21.025 34.0417 21.5002Z" fill="white"/>
<path fill-rule="evenodd" clip-rule="evenodd" d="M17.8163 5.82275H23.392C26.6851 5.82275 29.2937 5.82275 31.3345 6.09688C33.4343 6.37996 35.1346 6.9748 36.4765 8.31496C38.132 9.97225 38.6606 12.1903 38.8523 15.0695C39.8861 15.5228 40.6672 16.485 40.7515 17.7033C40.7604 17.8126 40.7604 17.929 40.7604 18.0365V24.9631C40.7604 25.0706 40.7604 25.1871 40.7532 25.2946C40.6672 26.5129 39.8861 27.4768 38.8523 27.9319C38.6606 30.8093 38.132 33.0274 36.4765 34.6847C35.1346 36.0249 33.4343 36.6197 31.3345 36.9028C29.292 37.1769 26.6851 37.1769 23.392 37.1769H17.8163C14.5232 37.1769 11.9146 37.1769 9.87387 36.9028C7.77404 36.6197 6.07375 36.0249 4.73179 34.6847C3.39162 33.3428 2.79679 31.6425 2.5137 29.5426C2.23958 27.5001 2.23958 24.8933 2.23958 21.6002V21.3995C2.23958 18.1064 2.23958 15.4978 2.5137 13.457C2.79679 11.3572 3.39162 9.65692 4.73179 8.31496C6.07375 6.9748 7.77404 6.37996 9.87387 6.09688C11.9164 5.82275 14.5232 5.82275 17.8163 5.82275ZM36.1343 28.2186H32.6621C28.819 28.2186 25.5295 25.3018 25.5295 21.4998C25.5295 17.6979 28.819 14.7811 32.6603 14.7811H36.1325C35.9283 12.3785 35.4678 11.1082 34.5738 10.2159C33.8159 9.45805 32.7767 9.00296 30.9743 8.76109C29.1343 8.51384 26.7066 8.51025 23.2899 8.51025H17.9149C14.4982 8.51025 12.0722 8.51384 10.2286 8.76109C8.428 9.00296 7.38883 9.45805 6.63095 10.2159C5.87308 10.9738 5.41979 12.013 5.17791 13.8136C4.93066 15.6554 4.92708 18.0813 4.92708 21.498C4.92708 24.9148 4.93066 27.3425 5.17791 29.1843C5.41979 30.9849 5.87487 32.0241 6.63274 32.782C7.39062 33.5398 8.42979 33.9949 10.2322 34.2368C12.074 34.484 14.5 34.4876 17.9167 34.4876H23.2917C26.7084 34.4876 29.1361 34.484 30.9779 34.2368C32.7785 33.9949 33.8177 33.5398 34.5756 32.782C35.4696 31.8897 35.9301 30.6212 36.1343 28.2168M9.40624 14.3332C9.40624 13.9768 9.54782 13.635 9.79982 13.383C10.0518 13.131 10.3936 12.9894 10.75 12.9894H17.9167C18.273 12.9894 18.6148 13.131 18.8668 13.383C19.1188 13.635 19.2604 13.9768 19.2604 14.3332C19.2604 14.6896 19.1188 15.0313 18.8668 15.2833C18.6148 15.5353 18.273 15.6769 17.9167 15.6769H10.75C10.3936 15.6769 10.0518 15.5353 9.79982 15.2833C9.54782 15.0313 9.40624 14.6896 9.40624 14.3332ZM37.4888 17.4686H32.6621C30.1107 17.4686 28.217 19.366 28.217 21.4998C28.217 23.6337 30.1107 25.5311 32.6603 25.5311H37.53C37.8991 25.5078 38.0586 25.2588 38.0711 25.1083V17.8914C38.0586 17.7409 37.8991 17.4919 37.53 17.4704L37.4888 17.4686Z" fill="white"/>
</svg>
