<svg width="32" height="29" viewBox="0 0 32 29" fill="none" xmlns="http://www.w3.org/2000/svg">
<path d="M1.57056 0.510376C1.2639 0.510376 0.969803 0.632195 0.752964 0.849034C0.536126 1.06587 0.414307 1.35997 0.414307 1.66663C0.414307 1.97328 0.536126 2.26738 0.752964 2.48422C0.969803 2.70106 1.2639 2.82288 1.57056 2.82288H3.39126C3.67021 2.82278 3.93979 2.92354 4.15029 3.10656C4.3608 3.28959 4.49804 3.54254 4.53672 3.81879L6.46997 17.5658C6.58632 18.394 6.99798 19.1523 7.62914 19.7011C8.2603 20.2498 9.06847 20.552 9.90481 20.552H25.8518C26.1585 20.552 26.4526 20.4302 26.6694 20.2134C26.8862 19.9965 27.0081 19.7024 27.0081 19.3958C27.0081 19.0891 26.8862 18.795 26.6694 18.5782C26.4526 18.3614 26.1585 18.2395 25.8518 18.2395H9.90481C9.62586 18.2396 9.35629 18.1389 9.14578 17.9559C8.93527 17.7728 8.79803 17.5199 8.75935 17.2436L8.57435 15.9286H25.3045C26.0452 15.929 26.7665 15.6923 27.3629 15.2531C27.9593 14.814 28.3995 14.1955 28.6191 13.4881L31.5806 3.94829C31.6342 3.77532 31.6465 3.59218 31.6163 3.41363C31.5862 3.23507 31.5145 3.06608 31.4071 2.92029C31.2997 2.77449 31.1596 2.65596 30.998 2.57423C30.8364 2.49251 30.6579 2.44989 30.4768 2.44979H6.50389C6.21821 1.86822 5.77536 1.37828 5.2255 1.0355C4.67564 0.692725 4.04076 0.510812 3.39281 0.510376H1.57056ZM7.00493 4.76229H28.9074L26.4099 12.8021C26.3365 13.0378 26.1896 13.2438 25.9907 13.39C25.7918 13.5361 25.5514 13.6148 25.3045 13.6145H8.24906L7.00493 4.76229ZM10.0004 22.8645C9.28486 22.8645 8.59863 23.1488 8.09267 23.6547C7.58672 24.1607 7.30247 24.8469 7.30247 25.5625C7.30247 26.278 7.58672 26.9642 8.09267 27.4702C8.59863 27.9761 9.28486 28.2604 10.0004 28.2604C10.7159 28.2604 11.4021 27.9761 11.9081 27.4702C12.4141 26.9642 12.6983 26.278 12.6983 25.5625C12.6983 24.8469 12.4141 24.1607 11.9081 23.6547C11.4021 23.1488 10.7159 22.8645 10.0004 22.8645ZM20.4621 25.5625C20.4621 24.8469 20.7464 24.1607 21.2523 23.6547C21.7583 23.1488 22.4445 22.8645 23.1601 22.8645C23.8756 22.8645 24.5618 23.1488 25.0678 23.6547C25.5737 24.1607 25.858 24.8469 25.858 25.5625C25.858 26.278 25.5737 26.9642 25.0678 27.4702C24.5618 27.9761 23.8756 28.2604 23.1601 28.2604C22.4445 28.2604 21.7583 27.9761 21.2523 27.4702C20.7464 26.9642 20.4621 26.278 20.4621 25.5625Z" fill="#F7931E"/>
</svg>
