<svg width="38" height="34" viewBox="0 0 38 34" fill="none" xmlns="http://www.w3.org/2000/svg">
<path d="M2.14951 0.822754C1.79312 0.822754 1.45133 0.964327 1.19933 1.21633C0.947329 1.46833 0.805756 1.81012 0.805756 2.1665C0.805756 2.52289 0.947329 2.86468 1.19933 3.11668C1.45133 3.36868 1.79312 3.51025 2.14951 3.51025H4.26546C4.58964 3.51015 4.90293 3.62724 5.14758 3.83994C5.39222 4.05265 5.55172 4.34662 5.59667 4.66767L7.84342 20.644C7.97863 21.6065 8.45705 22.4877 9.19056 23.1254C9.92407 23.7631 10.8633 24.1144 11.8353 24.1144H30.3683C30.7246 24.1144 31.0664 23.9728 31.3184 23.7208C31.5704 23.4688 31.712 23.1271 31.712 22.7707C31.712 22.4143 31.5704 22.0725 31.3184 21.8205C31.0664 21.5685 30.7246 21.4269 30.3683 21.4269H11.8353C11.5111 21.427 11.1978 21.3099 10.9531 21.0972C10.7085 20.8845 10.549 20.5906 10.504 20.2695L10.289 18.7412H29.7322C30.593 18.7416 31.4313 18.4666 32.1244 17.9562C32.8175 17.4459 33.3291 16.7271 33.5843 15.905L37.0261 4.81817C37.0884 4.61715 37.1026 4.40431 37.0676 4.1968C37.0325 3.98929 36.9493 3.7929 36.8245 3.62346C36.6996 3.45402 36.5368 3.31627 36.349 3.22129C36.1612 3.12632 35.9537 3.07678 35.7433 3.07667H7.88284C7.55084 2.40078 7.03616 1.8314 6.39714 1.43304C5.75811 1.03467 5.02028 0.823261 4.26726 0.822754H2.14951ZM8.46513 5.76417H33.9193L31.0168 15.1077C30.9315 15.3816 30.7608 15.621 30.5297 15.7909C30.2985 15.9608 30.0191 16.0523 29.7322 16.0519H9.91101L8.46513 5.76417ZM11.9463 26.8019C11.1148 26.8019 10.3173 27.1323 9.72926 27.7203C9.14126 28.3083 8.81092 29.1058 8.81092 29.9373C8.81092 30.7689 9.14126 31.5664 9.72926 32.1544C10.3173 32.7424 11.1148 33.0728 11.9463 33.0728C12.7779 33.0728 13.5754 32.7424 14.1634 32.1544C14.7514 31.5664 15.0818 30.7689 15.0818 29.9373C15.0818 29.1058 14.7514 28.3083 14.1634 27.7203C13.5754 27.1323 12.7779 26.8019 11.9463 26.8019ZM24.1046 29.9373C24.1046 29.1058 24.4349 28.3083 25.0229 27.7203C25.6109 27.1323 26.4084 26.8019 27.24 26.8019C28.0716 26.8019 28.8691 27.1323 29.4571 27.7203C30.0451 28.3083 30.3754 29.1058 30.3754 29.9373C30.3754 30.7689 30.0451 31.5664 29.4571 32.1544C28.8691 32.7424 28.0716 33.0728 27.24 33.0728C26.4084 33.0728 25.6109 32.7424 25.0229 32.1544C24.4349 31.5664 24.1046 30.7689 24.1046 29.9373Z" fill="white"/>
</svg>
