<svg width="42" height="42" viewBox="0 0 42 42" fill="none" xmlns="http://www.w3.org/2000/svg">
<path d="M21 0C9.44999 0 0 9.46687 0 21.1265C0 31.6687 7.68599 40.4187 17.724 42V27.241H12.39V21.1265H17.724V16.4669C17.724 11.1747 20.853 8.26506 25.662 8.26506C27.951 8.26506 30.345 8.66566 30.345 8.66566V13.8735H27.699C25.095 13.8735 24.276 15.497 24.276 17.1627V21.1265H30.114L29.169 27.241H24.276V42C29.2245 41.2153 33.7306 38.6803 36.9808 34.8525C40.231 31.0248 42.0112 26.1565 41.9999 21.1265C41.9999 9.46687 32.55 0 21 0Z" fill="#F7931E"/>
</svg>
