<svg width="26" height="26" viewBox="0 0 26 26" fill="none" xmlns="http://www.w3.org/2000/svg">
<rect width="26" height="26" rx="8" fill="#F7931E"/>
<path fill-rule="evenodd" clip-rule="evenodd" d="M4.78906 5.49516C4.78906 5.12659 4.93548 4.77312 5.19609 4.5125C5.45671 4.25188 5.81018 4.10547 6.17875 4.10547H20.0757C20.4442 4.10547 20.7977 4.25188 21.0583 4.5125C21.3189 4.77312 21.4653 5.12659 21.4653 5.49516V7.42775C21.4652 7.91914 21.2699 8.39036 20.9224 8.73777L15.9066 13.7536V20.6317C15.9066 20.8054 15.8622 20.9762 15.7776 21.128C15.693 21.2797 15.5711 21.4073 15.4233 21.4987C15.2755 21.59 15.1068 21.6421 14.9333 21.6499C14.7597 21.6577 14.587 21.621 14.4317 21.5433L10.988 19.8219C10.7956 19.7258 10.6339 19.5779 10.5208 19.395C10.4077 19.212 10.3478 19.0012 10.3478 18.7862V13.7536L5.33197 8.73777C4.98445 8.39036 4.78917 7.91914 4.78906 7.42775V5.49516Z" fill="white"/>
</svg>
