<svg width="24" height="22" viewBox="0 0 24 22" fill="none" xmlns="http://www.w3.org/2000/svg">
<path d="M12.981 2.41637L11.9972 3.41462L11.0086 2.41395C9.79914 1.18988 8.1588 0.502266 6.44845 0.502379C4.7381 0.502493 3.09785 1.19032 1.88853 2.41455C0.679213 3.63878 -0.000112487 5.29913 1.39709e-08 7.03034C0.000112515 8.76155 0.679654 10.4218 1.88913 11.6459L11.3614 21.2336C11.5301 21.4042 11.7588 21.5 11.9972 21.5C12.2357 21.5 12.4644 21.4042 12.6331 21.2336L22.1137 11.6434C23.3218 10.4191 24.0002 8.75943 24 7.02905C23.9998 5.29868 23.3209 3.63917 22.1125 2.41516C21.5131 1.80801 20.8013 1.32636 20.0179 0.99775C19.2345 0.669138 18.3948 0.5 17.5468 0.5C16.6988 0.5 15.8591 0.669138 15.0757 0.99775C14.2922 1.32636 13.5805 1.80922 12.981 2.41637ZM20.8372 10.3574L11.9972 19.3027L3.16089 10.3586C2.72541 9.92248 2.37938 9.40353 2.14269 8.8316C1.90599 8.25967 1.78331 7.64602 1.78168 7.02594C1.78005 6.40586 1.89951 5.79156 2.13319 5.21836C2.36687 4.64516 2.71017 4.12436 3.14336 3.6859C3.57654 3.24743 4.09106 2.89994 4.65736 2.66341C5.22365 2.42688 5.83054 2.30596 6.44315 2.30761C7.05576 2.30926 7.66201 2.43344 8.22705 2.67302C8.79209 2.9126 9.30478 3.26285 9.73566 3.70365L11.3649 5.3516C11.4497 5.4375 11.5506 5.50538 11.6617 5.55125C11.7727 5.59712 11.8917 5.62004 12.0117 5.61869C12.1316 5.61733 12.2501 5.59171 12.3601 5.54334C12.4701 5.49497 12.5695 5.42483 12.6523 5.33703L14.2528 3.70365C15.135 2.87248 16.3013 2.42003 17.5064 2.44149C18.7114 2.46296 19.8613 2.95665 20.714 3.81872C21.5668 4.68079 22.056 5.84404 22.0788 7.06376C22.1015 8.28347 21.656 9.46458 20.836 10.3586" fill="white"/>
</svg>
