<svg width="31" height="28" viewBox="0 0 31 28" fill="none" xmlns="http://www.w3.org/2000/svg">
<path d="M16.7642 3.10248L15.5 4.36973L14.2297 3.09939C12.6755 1.54546 10.5677 0.672554 8.37001 0.672698C6.17227 0.672843 4.06461 1.54603 2.51068 3.10016C0.956748 4.6543 0.0838398 6.76208 0.0839844 8.95981C0.084129 11.1575 0.957315 13.2652 2.51145 14.8191L14.6829 26.9906C14.8997 27.2071 15.1936 27.3288 15.5 27.3288C15.8064 27.3288 16.1003 27.2071 16.3171 26.9906L28.4993 14.8161C30.0516 13.2618 30.9234 11.1549 30.9231 8.95818C30.9228 6.7615 30.0505 4.65479 28.4978 3.10093C27.7275 2.33017 26.8129 1.71873 25.8063 1.30156C24.7996 0.884396 23.7206 0.669678 22.631 0.669678C21.5413 0.669678 20.4623 0.884396 19.4557 1.30156C18.449 1.71873 17.5344 2.33171 16.7642 3.10248ZM26.859 13.1834L15.5 24.5394L4.14562 13.185C3.58604 12.6313 3.1414 11.9725 2.83726 11.2465C2.53312 10.5204 2.37547 9.74141 2.37337 8.95423C2.37128 8.16704 2.52478 7.38721 2.82506 6.65954C3.12533 5.93188 3.56646 5.27073 4.12308 4.71411C4.67971 4.15749 5.34085 3.71636 6.06852 3.41608C6.79618 3.11581 7.57602 2.96231 8.3632 2.9644C9.15038 2.96649 9.92939 3.12414 10.6554 3.42828C11.3815 3.73243 12.0403 4.17707 12.594 4.73664L14.6875 6.82868C14.7965 6.93774 14.9261 7.02391 15.0688 7.08214C15.2115 7.14036 15.3644 7.16947 15.5185 7.16775C15.6727 7.16602 15.8249 7.1335 15.9662 7.0721C16.1076 7.01069 16.2353 6.92164 16.3417 6.81018L18.3983 4.73664C19.5319 3.68149 21.0306 3.10712 22.579 3.13436C24.1275 3.16161 25.605 3.78835 26.7008 4.88273C27.7965 5.97711 28.4252 7.45383 28.4544 9.00224C28.4836 10.5506 27.9112 12.05 26.8575 13.185" fill="#F7931E"/>
</svg>
