<svg width="42" height="42" viewBox="0 0 42 42" fill="none" xmlns="http://www.w3.org/2000/svg">
<path d="M24.3808 21.5099C24.3681 22.1752 24.1582 22.8217 23.7777 23.3675C23.3972 23.9133 22.8632 24.3338 22.2434 24.5758C21.6236 24.8178 20.9459 24.8703 20.2962 24.7266C19.6465 24.583 19.0541 24.2497 18.5941 23.7691C18.134 23.2884 17.827 22.6819 17.7121 22.0266C17.5971 21.3712 17.6792 20.6965 17.9482 20.0879C18.2171 19.4793 18.6607 18.9642 19.2226 18.608C19.7846 18.2518 20.4397 18.0705 21.1048 18.087C21.9887 18.1197 22.8251 18.4954 23.4367 19.1344C24.0482 19.7734 24.3869 20.6255 24.3808 21.5099Z" fill="#F7931E"/>
<path d="M26.8021 10.9888H15.4098C14.2825 10.9888 13.2014 11.4366 12.4043 12.2337C11.6072 13.0308 11.1594 14.1119 11.1594 15.2391V26.8877C11.1594 27.4458 11.2694 27.9985 11.483 28.5142C11.6966 29.0299 12.0096 29.4984 12.4043 29.8931C12.799 30.2878 13.2676 30.6009 13.7832 30.8145C14.2989 31.0281 14.8516 31.138 15.4098 31.138H26.8021C27.3603 31.138 27.913 31.0281 28.4287 30.8145C28.9443 30.6009 29.4129 30.2878 29.8076 29.8931C30.2023 29.4984 30.5153 29.0299 30.7289 28.5142C30.9425 27.9985 31.0525 27.4458 31.0525 26.8877V15.2601C31.0547 14.7003 30.9464 14.1456 30.7339 13.6278C30.5213 13.1099 30.2086 12.6391 29.8138 12.2423C29.4189 11.8455 28.9497 11.5305 28.4329 11.3154C27.9161 11.1003 27.3619 10.9893 26.8021 10.9888ZM21.1049 27.2069C19.9771 27.2323 18.8674 26.9212 17.9172 26.3131C16.9671 25.7051 16.2196 24.8278 15.7703 23.7931C15.321 22.7584 15.1901 21.6133 15.3945 20.5039C15.5988 19.3945 16.1291 18.3711 16.9176 17.5644C17.7061 16.7577 18.717 16.2043 19.8215 15.9747C20.9259 15.7451 22.0737 15.8498 23.1184 16.2753C24.163 16.7009 25.0572 17.4282 25.6868 18.3642C26.3164 19.3002 26.6527 20.4026 26.653 21.5306C26.6622 22.2678 26.5259 22.9996 26.2519 23.6841C25.9779 24.3685 25.5716 24.9922 25.0562 25.5194C24.5409 26.0467 23.9266 26.4671 23.2486 26.7566C22.5706 27.0462 21.8421 27.1992 21.1049 27.2069ZM27.2704 15.8565C27.1319 15.8565 26.9947 15.8289 26.8669 15.7753C26.7392 15.7216 26.6234 15.643 26.5264 15.544C26.4294 15.4451 26.3531 15.3278 26.302 15.199C26.2509 15.0702 26.226 14.9325 26.2288 14.7939C26.2288 14.5121 26.3408 14.2418 26.5401 14.0426C26.7393 13.8433 27.0096 13.7313 27.2914 13.7313C27.5732 13.7313 27.8435 13.8433 28.0428 14.0426C28.2421 14.2418 28.354 14.5121 28.354 14.7939C28.3582 14.9439 28.3299 15.0931 28.2711 15.2311C28.2122 15.3692 28.1243 15.4929 28.0132 15.5938C27.9021 15.6948 27.7705 15.7705 27.6275 15.8158C27.4844 15.8611 27.3332 15.875 27.1843 15.8565H27.2704Z" fill="#F7931E"/>
<path d="M21.105 0.000262862C15.5355 -0.0275845 10.1831 2.15817 6.22519 6.0767C2.26728 9.99522 0.0281102 15.3255 0.000262862 20.895C-0.0275845 26.4645 2.15817 31.8169 6.0767 35.7748C9.99522 39.7327 15.3255 41.9719 20.895 41.9997C23.6527 42.0135 26.3862 41.484 28.9392 40.4414C31.4923 39.3988 33.8151 37.8636 35.7748 35.9233C37.7346 33.983 39.293 31.6758 40.361 29.1333C41.4291 26.5907 41.986 23.8627 41.9997 21.105C42.0135 18.3473 41.484 15.6138 40.4414 13.0608C39.3988 10.5077 37.8636 8.18495 35.9233 6.22519C33.983 4.26543 31.6758 2.70703 29.1333 1.63895C26.5907 0.570879 23.8627 0.0140515 21.105 0.000262862ZM33.8581 26.6741C33.864 27.6162 33.6828 28.5502 33.325 29.4217C32.9672 30.2933 32.44 31.0852 31.7739 31.7514C31.1078 32.4177 30.3161 32.9452 29.4447 33.3032C28.5732 33.6612 27.6393 33.8427 26.6972 33.8371H15.517C14.5749 33.843 13.6409 33.6618 12.7694 33.304C11.8978 32.9462 11.1059 32.419 10.4397 31.7529C9.77336 31.0868 9.24592 30.2951 8.88789 29.4237C8.52987 28.5522 8.34838 27.6183 8.35396 26.6762V15.4939C8.34811 14.5518 8.52932 13.6178 8.88709 12.7463C9.24486 11.8747 9.77207 11.0828 10.4382 10.4166C11.1043 9.75027 11.896 9.22282 12.7674 8.86479C13.6389 8.50677 14.5727 8.32528 15.5149 8.33086H26.6972C27.6392 8.32528 28.5729 8.5067 29.4442 8.8646C30.3155 9.22249 31.1071 9.74975 31.7732 10.4158C32.4392 11.0819 32.9665 11.8735 33.3244 12.7448C33.6823 13.6161 33.8637 14.5498 33.8581 15.4918V26.6741Z" fill="#F7931E"/>
</svg>
