<svg width="37" height="38" viewBox="0 0 37 38" fill="none" xmlns="http://www.w3.org/2000/svg">
<path fill-rule="evenodd" clip-rule="evenodd" d="M24.6668 14.3749C24.6668 16.0104 24.0171 17.5789 22.8607 18.7354C21.7042 19.8919 20.1357 20.5416 18.5002 20.5416C16.8647 20.5416 15.2961 19.8919 14.1397 18.7354C12.9832 17.5789 12.3335 16.0104 12.3335 14.3749C12.3335 12.7394 12.9832 11.1709 14.1397 10.0144C15.2961 8.85795 16.8647 8.20825 18.5002 8.20825C20.1357 8.20825 21.7042 8.85795 22.8607 10.0144C24.0171 11.1709 24.6668 12.7394 24.6668 14.3749ZM21.5835 14.3749C21.5835 15.1927 21.2586 15.9769 20.6804 16.5552C20.1022 17.1334 19.3179 17.4583 18.5002 17.4583C17.6824 17.4583 16.8982 17.1334 16.3199 16.5552C15.7417 15.9769 15.4168 15.1927 15.4168 14.3749C15.4168 13.5572 15.7417 12.7729 16.3199 12.1947C16.8982 11.6164 17.6824 11.2916 18.5002 11.2916C19.3179 11.2916 20.1022 11.6164 20.6804 12.1947C21.2586 12.7729 21.5835 13.5572 21.5835 14.3749Z" fill="#F7931E"/>
<path fill-rule="evenodd" clip-rule="evenodd" d="M18.5001 2.04163C9.13446 2.04163 1.54175 9.63433 1.54175 19C1.54175 28.3656 9.13446 35.9583 18.5001 35.9583C27.8657 35.9583 35.4584 28.3656 35.4584 19C35.4584 9.63433 27.8657 2.04163 18.5001 2.04163ZM4.62508 19C4.62508 22.222 5.72429 25.1882 7.56658 27.5439C8.86072 25.8452 10.5299 24.4685 12.4439 23.5212C14.3578 22.574 16.4648 22.0819 18.6003 22.0833C20.7083 22.0808 22.7891 22.5598 24.6839 23.4837C26.5787 24.4076 28.2375 25.752 29.5338 27.4144C30.8696 25.6624 31.769 23.6176 32.1575 21.449C32.5461 19.2805 32.4127 17.0506 31.7684 14.9438C31.1241 12.837 29.9874 10.914 28.4523 9.33377C26.9172 7.75354 25.0279 6.56158 22.9407 5.85649C20.8535 5.15141 18.6283 4.95348 16.4494 5.27908C14.2706 5.60469 12.2005 6.44446 10.4106 7.72892C8.62069 9.01337 7.16237 10.7056 6.15631 12.6656C5.15025 14.6255 4.62536 16.7969 4.62508 19ZM18.5001 32.875C15.3149 32.8801 12.2257 31.7843 9.75575 29.7731C10.7498 28.3496 12.0732 27.1873 13.6131 26.3852C15.1531 25.5832 16.864 25.1651 18.6003 25.1666C20.3149 25.1651 22.0051 25.5728 23.5305 26.3557C25.0559 27.1387 26.3725 28.2743 27.3708 29.6683C24.8818 31.7449 21.7417 32.88 18.5001 32.875Z" fill="#F7931E"/>
</svg>
