<svg width="44" height="44" viewBox="0 0 44 44" fill="none" xmlns="http://www.w3.org/2000/svg">
<path d="M36.638 29.2188C36.638 28.7986 36.428 28.5408 36.0078 28.4453C34.7283 28.1589 33.6016 27.5955 32.6276 26.7552C31.6536 25.9149 30.8898 24.8837 30.3359 23.6615C30.2023 23.2986 30.1354 23.0599 30.1354 22.9453C30.1354 22.6589 30.3216 22.4106 30.694 22.2005C31.0664 21.9905 31.477 21.8281 31.9258 21.7135C32.3746 21.599 32.7852 21.4032 33.1576 21.1263C33.5299 20.8494 33.7161 20.5009 33.7161 20.0807C33.7161 19.7179 33.5395 19.4171 33.1862 19.1784C32.8329 18.9397 32.4653 18.8203 32.0833 18.8203C31.8542 18.8203 31.5486 18.8967 31.1667 19.0495C30.7847 19.2023 30.4887 19.2786 30.2786 19.2786C30.2023 19.2786 30.0877 19.2595 29.9349 19.2214C30.0304 17.4071 30.0781 16.3186 30.0781 15.9557C30.0781 14.447 29.9158 13.3585 29.5911 12.6901C28.9036 11.2005 27.9201 10.0404 26.6406 9.20964C25.3611 8.37891 23.9097 7.96354 22.2865 7.96354C18.4861 7.96354 15.8602 9.53906 14.4089 12.6901C14.0842 13.3585 13.9219 14.447 13.9219 15.9557C13.9219 16.3186 13.9696 17.4071 14.0651 19.2214C13.9887 19.2595 13.855 19.2786 13.6641 19.2786C13.4349 19.2786 13.1293 19.207 12.7474 19.0638C12.3655 18.9206 12.079 18.849 11.888 18.849C11.487 18.849 11.1194 18.9635 10.7852 19.1927C10.451 19.4219 10.2839 19.7274 10.2839 20.1094C10.2839 20.5104 10.4701 20.8494 10.8424 21.1263C11.2148 21.4032 11.6254 21.599 12.0742 21.7135C12.523 21.8281 12.9336 21.9905 13.306 22.2005C13.6784 22.4106 13.8646 22.6589 13.8646 22.9453C13.8646 23.0599 13.7977 23.2986 13.6641 23.6615C12.4418 26.2969 10.5512 27.8915 7.99219 28.4453C7.57205 28.5408 7.36198 28.7986 7.36198 29.2188C7.36198 30.0972 8.67014 30.7465 11.2865 31.1667C11.3247 31.2622 11.3819 31.5104 11.4583 31.9115C11.5347 32.3125 11.6445 32.6037 11.7878 32.7852C11.931 32.9666 12.1554 33.0573 12.4609 33.0573C12.6901 33.0573 13.0482 33.0143 13.5352 32.9284C14.0221 32.8424 14.3993 32.7995 14.6667 32.7995C15.3351 32.7995 15.9748 32.9427 16.5859 33.2292C17.197 33.5156 17.7127 33.826 18.1328 34.1602C18.553 34.4944 19.102 34.8047 19.7799 35.0911C20.4579 35.3776 21.1884 35.5208 21.9714 35.5208C22.7925 35.5208 23.5469 35.3776 24.2344 35.0911C24.9219 34.8047 25.4709 34.4944 25.8815 34.1602C26.2921 33.826 26.803 33.5156 27.4141 33.2292C28.0252 32.9427 28.6649 32.7995 29.3333 32.7995C29.6007 32.7995 29.9779 32.8377 30.4648 32.9141C30.9518 32.9905 31.3194 33.0286 31.5677 33.0286C31.8733 33.0286 32.0929 32.9332 32.2266 32.7422C32.3602 32.5512 32.4653 32.2648 32.5417 31.8828C32.6181 31.5009 32.6753 31.2622 32.7135 31.1667C35.3299 30.7465 36.638 30.0972 36.638 29.2188ZM44 22C44 25.9913 43.0165 29.6723 41.0495 33.043C39.0825 36.4136 36.4136 39.0825 33.043 41.0495C29.6723 43.0165 25.9913 44 22 44C18.0087 44 14.3277 43.0165 10.957 41.0495C7.58637 39.0825 4.91753 36.4136 2.95052 33.043C0.983507 29.6723 0 25.9913 0 22C0 18.0087 0.983507 14.3277 2.95052 10.957C4.91753 7.58637 7.58637 4.91753 10.957 2.95052C14.3277 0.983507 18.0087 0 22 0C25.9913 0 29.6723 0.983507 33.043 2.95052C36.4136 4.91753 39.0825 7.58637 41.0495 10.957C43.0165 14.3277 44 18.0087 44 22Z" fill="#F7931E"/>
</svg>
