<svg width="24" height="28" viewBox="0 0 24 28" fill="none" xmlns="http://www.w3.org/2000/svg">
<path d="M22.6136 9.9467C21.7203 8.96003 20.3736 8.3867 18.507 8.1867V7.17336C18.507 5.3467 17.7336 3.5867 16.3736 2.36003C15.0003 1.1067 13.2136 0.52003 11.3603 0.693363C8.17365 1.00003 5.49365 4.08003 5.49365 7.41336V8.1867C3.62698 8.3867 2.28031 8.96003 1.38698 9.9467C0.0936453 11.3867 0.133645 13.3067 0.280312 14.64L1.21365 22.0667C1.49365 24.6667 2.54698 27.3334 8.28031 27.3334H15.7203C21.4536 27.3334 22.507 24.6667 22.787 22.08L23.7203 14.6267C23.867 13.3067 23.8936 11.3867 22.6136 9.9467ZM11.547 2.5467C12.8803 2.4267 14.147 2.84003 15.1336 3.73336C16.107 4.61336 16.6536 5.8667 16.6536 7.17336V8.1067H7.34698V7.41336C7.34698 5.04003 9.30698 2.76003 11.547 2.5467ZM7.22698 15.5334H7.21365C6.48031 15.5334 5.88031 14.9334 5.88031 14.2C5.88031 13.4667 6.48031 12.8667 7.21365 12.8667C7.96031 12.8667 8.56031 13.4667 8.56031 14.2C8.56031 14.9334 7.96031 15.5334 7.22698 15.5334ZM16.5603 15.5334H16.547C15.8136 15.5334 15.2136 14.9334 15.2136 14.2C15.2136 13.4667 15.8136 12.8667 16.547 12.8667C17.2936 12.8667 17.8936 13.4667 17.8936 14.2C17.8936 14.9334 17.2936 15.5334 16.5603 15.5334Z" fill="#D50B8B"/>
</svg>
