<svg width="21" height="23" viewBox="0 0 21 23" fill="none" xmlns="http://www.w3.org/2000/svg">
<path d="M20.5 18.5608C20.3678 19.6297 20.31 20.0932 19.8164 21.135L12.2373 22.7004C12.4115 21.5743 12.644 20.7058 13.0215 20.1848L20.5 18.5608ZM9.94336 11.1897L12.208 10.6985V3.54224C13.0519 2.59493 13.5702 2.16879 14.5889 1.6311V10.1819L20.5 8.89868C20.3678 9.96744 20.31 10.431 19.8164 11.4729L14.5889 12.5774V14.9807L20.5 13.7297C20.3678 14.7986 20.31 15.2622 19.8164 16.304L14.5889 17.3831V17.4055L12.208 17.8977V13.0813L9.94336 13.5598V16.5959L9.9043 16.6038C9.38348 17.5169 8.64803 18.6137 7.93945 19.4895L0.5 20.9065C0.566702 19.9493 0.705837 19.4097 1.13867 18.4456L7.56152 17.053V14.0637L1.6084 15.3225C1.6751 14.3653 1.81521 13.8257 2.24805 12.8616L7.56152 11.7073V2.21021C8.40543 1.2629 8.92471 0.837746 9.94336 0.300049V11.1897Z" fill="black"/>
</svg>
