<svg width="32" height="33" viewBox="0 0 32 33" fill="none" xmlns="http://www.w3.org/2000/svg">
<path d="M15.3332 29.5001C7.79984 29.5001 1.6665 23.3667 1.6665 15.8334C1.6665 8.30008 7.79984 2.16675 15.3332 2.16675C22.8665 2.16675 28.9998 8.30008 28.9998 15.8334C28.9998 23.3667 22.8665 29.5001 15.3332 29.5001ZM15.3332 4.16675C8.89317 4.16675 3.6665 9.40675 3.6665 15.8334C3.6665 22.2601 8.89317 27.5001 15.3332 27.5001C21.7732 27.5001 26.9998 22.2601 26.9998 15.8334C26.9998 9.40675 21.7732 4.16675 15.3332 4.16675Z" fill="black"/>
<path d="M29.3333 30.8333C29.0799 30.8333 28.8266 30.7399 28.6266 30.5399L25.9599 27.8733C25.5733 27.4866 25.5733 26.8466 25.9599 26.4599C26.3466 26.0733 26.9866 26.0733 27.3733 26.4599L30.0399 29.1266C30.4266 29.5133 30.4266 30.1533 30.0399 30.5399C29.8399 30.7399 29.5866 30.8333 29.3333 30.8333Z" fill="black"/>
</svg>
