<svg width="30" height="31" viewBox="0 0 30 31" fill="none" xmlns="http://www.w3.org/2000/svg">
<path d="M20.2375 3H9.7625C5.2125 3 2.5 5.7125 2.5 10.2625V20.725C2.5 25.2875 5.2125 28 9.7625 28H20.225C24.775 28 27.4875 25.2875 27.4875 20.7375V10.2625C27.5 5.7125 24.7875 3 20.2375 3ZM19.2 18.375C19.5625 18.7375 19.5625 19.3375 19.2 19.7C19.0125 19.8875 18.775 19.975 18.5375 19.975C18.3 19.975 18.0625 19.8875 17.875 19.7L15 16.825L12.125 19.7C11.9375 19.8875 11.7 19.975 11.4625 19.975C11.225 19.975 10.9875 19.8875 10.8 19.7C10.4375 19.3375 10.4375 18.7375 10.8 18.375L13.675 15.5L10.8 12.625C10.4375 12.2625 10.4375 11.6625 10.8 11.3C11.1625 10.9375 11.7625 10.9375 12.125 11.3L15 14.175L17.875 11.3C18.2375 10.9375 18.8375 10.9375 19.2 11.3C19.5625 11.6625 19.5625 12.2625 19.2 12.625L16.325 15.5L19.2 18.375Z" fill="#E00A0A"/>
</svg>
