<svg width="31" height="31" viewBox="0 0 31 31" fill="none" xmlns="http://www.w3.org/2000/svg">
<rect width="31" height="31" rx="8" fill="#C195A0"/>
<path d="M24.5714 17.4286H17.4286V24.5714C17.4286 24.9503 17.2781 25.3137 17.0102 25.5816C16.7422 25.8495 16.3789 26 16 26C15.6211 26 15.2578 25.8495 14.9898 25.5816C14.7219 25.3137 14.5714 24.9503 14.5714 24.5714V17.4286H7.42857C7.04969 17.4286 6.68633 17.2781 6.41842 17.0102C6.15051 16.7422 6 16.3789 6 16C6 15.6211 6.15051 15.2578 6.41842 14.9898C6.68633 14.7219 7.04969 14.5714 7.42857 14.5714H14.5714V7.42857C14.5714 7.04969 14.7219 6.68633 14.9898 6.41842C15.2578 6.15051 15.6211 6 16 6C16.3789 6 16.7422 6.15051 17.0102 6.41842C17.2781 6.68633 17.4286 7.04969 17.4286 7.42857V14.5714H24.5714C24.9503 14.5714 25.3137 14.7219 25.5816 14.9898C25.8495 15.2578 26 15.6211 26 16C26 16.3789 25.8495 16.7422 25.5816 17.0102C25.3137 17.2781 24.9503 17.4286 24.5714 17.4286Z" fill="#F6F5F5"/>
</svg>
