<svg width="28" height="27" viewBox="0 0 28 27" fill="none" xmlns="http://www.w3.org/2000/svg">
<path fill-rule="evenodd" clip-rule="evenodd" d="M8 6C8 4.4087 8.63214 2.88258 9.75736 1.75736C10.8826 0.632141 12.4087 0 14 0C15.5913 0 17.1174 0.632141 18.2426 1.75736C19.3679 2.88258 20 4.4087 20 6C20 7.5913 19.3679 9.11742 18.2426 10.2426C17.1174 11.3679 15.5913 12 14 12C12.4087 12 10.8826 11.3679 9.75736 10.2426C8.63214 9.11742 8 7.5913 8 6ZM8 15C6.01088 15 4.10322 15.7902 2.6967 17.1967C1.29018 18.6032 0.5 20.5109 0.5 22.5C0.5 23.6935 0.974106 24.8381 1.81802 25.682C2.66193 26.5259 3.80653 27 5 27H23C24.1935 27 25.3381 26.5259 26.182 25.682C27.0259 24.8381 27.5 23.6935 27.5 22.5C27.5 20.5109 26.7098 18.6032 25.3033 17.1967C23.8968 15.7902 21.9891 15 20 15H8Z" fill="#C195A0"/>
</svg>
