<svg width="32" height="33" viewBox="0 0 32 33" fill="none" xmlns="http://www.w3.org/2000/svg">
<path d="M22 12.0067C21.4533 12.0067 21 11.5534 21 11.0067V9.16674C21 7.76674 20.4 6.40674 19.36 5.46007C18.3067 4.50007 16.9467 4.06007 15.5067 4.19341C13.1067 4.42007 11 6.87341 11 9.43341V10.7267C11 11.2734 10.5467 11.7267 10 11.7267C9.45333 11.7267 9 11.2734 9 10.7267V9.42007C9 5.83341 11.8933 2.52674 15.32 2.19341C17.32 2.00674 19.24 2.63341 20.7067 3.98007C22.16 5.30007 23 7.19341 23 9.16674V11.0067C23 11.5534 22.5467 12.0067 22 12.0067Z" fill="#000"/>
<path d="M19.9998 30.8333H11.9998C5.83976 30.8333 4.69309 27.9667 4.39976 25.18L3.39976 17.1933C3.25309 15.7533 3.19976 13.6867 4.59976 12.14C5.79976 10.8067 7.78642 10.1667 10.6664 10.1667H21.3331C24.2264 10.1667 26.2131 10.82 27.3998 12.14C28.7864 13.6867 28.7464 15.7533 28.5998 17.1667L27.5998 25.18C27.3064 27.9667 26.1598 30.8333 19.9998 30.8333ZM10.6664 12.1667C8.41309 12.1667 6.86642 12.6067 6.07976 13.4867C5.42642 14.2067 5.21309 15.3133 5.38642 16.9667L6.38642 24.9533C6.61309 27.0867 7.19976 28.8467 11.9998 28.8467H19.9998C24.7998 28.8467 25.3864 27.1 25.6131 24.98L26.6131 16.9667C26.7864 15.34 26.5731 14.2333 25.9198 13.5C25.1331 12.6067 23.5864 12.1667 21.3331 12.1667H10.6664Z" fill="#000"/>
<path d="M20.56 18.0334C19.8134 18.0334 19.2134 17.4334 19.2134 16.7C19.2134 15.9667 19.8134 15.3667 20.5467 15.3667C21.28 15.3667 21.88 15.9667 21.88 16.7C21.88 17.4334 21.2934 18.0334 20.56 18.0334Z" fill="#000"/>
<path d="M11.227 18.0334C10.4804 18.0334 9.88037 17.4334 9.88037 16.7C9.88037 15.9667 10.4804 15.3667 11.2137 15.3667C11.947 15.3667 12.547 15.9667 12.547 16.7C12.547 17.4334 11.9604 18.0334 11.227 18.0334Z" fill="#000"/>
</svg>
