<svg width="16" height="16" viewBox="0 0 16 16" fill="none" xmlns="http://www.w3.org/2000/svg">
<path d="M7.99967 15.1666C4.04634 15.1666 0.833008 11.9533 0.833008 7.99998C0.833008 4.04665 4.04634 0.833313 7.99967 0.833313C11.953 0.833313 15.1663 4.04665 15.1663 7.99998C15.1663 11.9533 11.953 15.1666 7.99967 15.1666ZM7.99967 1.83331C4.59967 1.83331 1.83301 4.59998 1.83301 7.99998C1.83301 11.4 4.59967 14.1666 7.99967 14.1666C11.3997 14.1666 14.1663 11.4 14.1663 7.99998C14.1663 4.59998 11.3997 1.83331 7.99967 1.83331Z" fill="#E00A0A"/>
<path d="M6.11357 10.3867C5.9869 10.3867 5.86023 10.34 5.76023 10.24C5.5669 10.0467 5.5669 9.72666 5.76023 9.53332L9.53357 5.75999C9.7269 5.56666 10.0469 5.56666 10.2402 5.75999C10.4336 5.95332 10.4336 6.27332 10.2402 6.46666L6.4669 10.24C6.37357 10.34 6.24023 10.3867 6.11357 10.3867Z" fill="#E00A0A"/>
<path d="M9.8869 10.3867C9.76023 10.3867 9.63357 10.34 9.53357 10.24L5.76023 6.46666C5.5669 6.27332 5.5669 5.95332 5.76023 5.75999C5.95357 5.56666 6.27357 5.56666 6.4669 5.75999L10.2402 9.53332C10.4336 9.72666 10.4336 10.0467 10.2402 10.24C10.1402 10.34 10.0136 10.3867 9.8869 10.3867Z" fill="#E00A0A"/>
</svg>
