<svg width="25" height="25" viewBox="0 0 25 25" fill="none" xmlns="http://www.w3.org/2000/svg">
<path d="M24.9625 20.4125C24.9625 20.8625 24.8625 21.325 24.65 21.775C24.4375 22.225 24.1625 22.65 23.8 23.05C23.1875 23.725 22.5125 24.2125 21.75 24.525C21 24.8375 20.1875 25 19.3125 25C18.0375 25 16.675 24.7 15.2375 24.0875C13.8 23.475 12.3625 22.65 10.9375 21.6125C9.5 20.5625 8.1375 19.4 6.8375 18.1125C5.55 16.8125 4.3875 15.45 3.35 14.025C2.325 12.6 1.5 11.175 0.9 9.7625C0.3 8.3375 0 6.975 0 5.675C0 4.825 0.15 4.0125 0.45 3.2625C0.75 2.5 1.225 1.8 1.8875 1.175C2.6875 0.3875 3.5625 0 4.4875 0C4.8375 0 5.1875 0.0750001 5.5 0.225C5.825 0.375 6.1125 0.6 6.3375 0.925L9.2375 5.0125C9.4625 5.325 9.625 5.6125 9.7375 5.8875C9.85 6.15 9.9125 6.4125 9.9125 6.65C9.9125 6.95 9.825 7.25 9.65 7.5375C9.4875 7.825 9.25 8.125 8.95 8.425L8 9.4125C7.8625 9.55 7.8 9.7125 7.8 9.9125C7.8 10.0125 7.8125 10.1 7.8375 10.2C7.875 10.3 7.9125 10.375 7.9375 10.45C8.1625 10.8625 8.55 11.4 9.1 12.05C9.6625 12.7 10.2625 13.3625 10.9125 14.025C11.5875 14.6875 12.2375 15.3 12.9 15.8625C13.55 16.4125 14.0875 16.7875 14.5125 17.0125C14.575 17.0375 14.65 17.075 14.7375 17.1125C14.8375 17.15 14.9375 17.1625 15.05 17.1625C15.2625 17.1625 15.425 17.0875 15.5625 16.95L16.5125 16.0125C16.825 15.7 17.125 15.4625 17.4125 15.3125C17.7 15.1375 17.9875 15.05 18.3 15.05C18.5375 15.05 18.7875 15.1 19.0625 15.2125C19.3375 15.325 19.625 15.4875 19.9375 15.7L24.075 18.6375C24.4 18.8625 24.625 19.125 24.7625 19.4375C24.8875 19.75 24.9625 20.0625 24.9625 20.4125Z" fill="#384DA4"/>
</svg>
