<svg width="28" height="31" viewBox="0 0 28 31" fill="none" xmlns="http://www.w3.org/2000/svg">
<path d="M27.6787 25.2725C27.4958 26.7517 27.4146 27.393 26.7314 28.835L16.2432 31C16.4843 29.4418 16.8058 28.2405 17.3281 27.5195L27.6787 25.2725ZM13.0684 15.0713L16.2031 14.3906V4.48633C17.3709 3.17553 18.0885 2.58684 19.498 1.84277V13.6758L27.6787 11.8994C27.4958 13.3788 27.4146 14.0199 26.7314 15.4619L19.498 16.9912V20.3174L27.6787 18.5869C27.4958 20.066 27.4145 20.7066 26.7314 22.1484L19.498 23.6416V23.6738L16.2031 24.3545V17.6875L13.0684 18.3496V22.5518L13.0146 22.5625C12.2937 23.8266 11.2759 25.3452 10.2949 26.5576L0 28.5176C0.0923115 27.1932 0.284922 26.4473 0.883789 25.1133L9.77246 23.1855V19.0469L1.53418 20.79C1.62649 19.4654 1.81899 18.719 2.41797 17.3848L9.77246 15.7871V2.64355C10.9403 1.33257 11.6586 0.744131 13.0684 0V15.0713Z" fill="#384DA4"/>
</svg>
